/* XPM */
static char *f03c11191bea4e64c2e31c60264fa2d40llr5jyulOf5aMN2[] = {
/* columns rows colors chars-per-pixel */
"50 50 233 2 ",
"   c None",
".  c #000000",
"X  c #0A0302",
"o  c #0C0A09",
"O  c #02030D",
"+  c #180603",
"@  c #000013",
"#  c #000D16",
"$  c #071318",
"%  c #151515",
"&  c #181716",
"*  c #17110C",
"=  c #330000",
"-  c #261A0F",
";  c #391800",
":  c #2B1E12",
">  c #271916",
",  c #2D0E0C",
"<  c #2E2517",
"1  c #352819",
"2  c #37220E",
"3  c #001C2D",
"4  c #041623",
"5  c #001F32",
"6  c #022335",
"7  c #172A31",
"8  c #372C22",
"9  c #303231",
"0  c #580000",
"q  c #471900",
"w  c #400000",
"e  c #620C11",
"r  c #44311D",
"t  c #583919",
"y  c #4F3007",
"u  c #713C0C",
"i  c #483725",
"p  c #543D25",
"a  c #553A27",
"s  c #473830",
"d  c #6D2827",
"f  c #79441B",
"g  c #5B432A",
"h  c #584428",
"j  c #48473B",
"k  c #52433B",
"l  c #584734",
"z  c #654629",
"x  c #644B32",
"c  c #6B4C34",
"v  c #724B35",
"b  c #6D5134",
"n  c #6D513B",
"m  c #735436",
"M  c #765839",
"N  c #7B5C3B",
"B  c #79573A",
"V  c #1E3E50",
"C  c #003460",
"Z  c #1D5A7D",
"A  c #2B546A",
"S  c #484A49",
"D  c #545147",
"F  c #695943",
"G  c #7A5944",
"H  c #7A6447",
"J  c #7D765D",
"K  c #626463",
"L  c #7A7B79",
"P  c #5A665B",
"I  c #A90008",
"U  c #C32500",
"Y  c #CB0D26",
"T  c #874B1B",
"R  c #8A501C",
"E  c #AC4D0D",
"W  c #B0641C",
"Q  c #8F5637",
"!  c #A05E3C",
"~  c #9F6E37",
"^  c #EA5100",
"/  c #C86804",
"(  c #EA7B11",
")  c #D35824",
"_  c #875E41",
"`  c #905E42",
"'  c #856543",
"]  c #8A6A47",
"[  c #9B734C",
"{  c #99714A",
"}  c #8D7656",
"|  c #987956",
" . c #8F6F55",
".. c #A26D51",
"X. c #A47C53",
"o. c #A87D58",
"O. c #A67450",
"+. c #A57C61",
"@. c #D17E6A",
"#. c #7D877D",
"$. c #FC8A16",
"%. c #EC831A",
"&. c #EB8324",
"*. c #F7933B",
"=. c #F98E29",
"-. c #FAA138",
";. c #E7B618",
":. c yellow",
">. c #F0CE00",
",. c #9C825E",
"<. c #AE855B",
"1. c #A8825A",
"2. c #B0875C",
"3. c #B3895E",
"4. c #9D8461",
"5. c #9A8B74",
"6. c #A78A63",
"7. c #BB8E61",
"8. c #B48D62",
"9. c #BE9163",
"0. c #B3956C",
"q. c #B4956C",
"w. c #BB9D73",
"e. c #B49971",
"r. c #AB9570",
"t. c #B9A26D",
"y. c #BCA27A",
"u. c #F18F4F",
"i. c #FBAA59",
"p. c #FDA94E",
"a. c #C29566",
"s. c #C59668",
"d. c #C79969",
"f. c #C99A6B",
"g. c #D1986F",
"h. c #D59775",
"j. c #C59774",
"k. c #E29F78",
"l. c #C8A57A",
"z. c #D8A87A",
"x. c #D6B57C",
"c. c #D0A16F",
"v. c #E3A37A",
"b. c #E4AB7B",
"n. c #FAB565",
"m. c #C7954F",
"M. c #DFCB7A",
"N. c #F2D561",
"B. c #005F8E",
"V. c #006A9A",
"C. c #186B97",
"Z. c #087DB3",
"A. c #1878AB",
"S. c #2779A6",
"D. c #1C86BE",
"F. c #2281B5",
"G. c #2488BF",
"H. c #2484B9",
"J. c #3E90BF",
"K. c #7E8180",
"L. c #4E91B5",
"P. c #1D89C2",
"I. c #258BC3",
"U. c #298BC3",
"Y. c #459DCF",
"T. c #55A6D2",
"R. c #878B8B",
"E. c #969998",
"W. c #919389",
"Q. c #9EA499",
"!. c #9BA28D",
"~. c #A3A896",
"^. c #B5AC8D",
"/. c #9DA1A2",
"(. c #A7AAA9",
"). c #B9BCBB",
"_. c #B4B8B7",
"`. c #BA9589",
"'. c #D6AD81",
"]. c #D3B282",
"[. c #DBB684",
"{. c #D6BB89",
"}. c #C4B490",
"|. c #E5AD82",
" X c #E3BD8B",
".X c #ECBD8B",
"XX c #E7B286",
"oX c #F5B688",
"OX c #D9C18E",
"+X c #E4C38C",
"@X c #EBC18F",
"#X c #E5C789",
"$X c #F3C68C",
"%X c #F0C187",
"&X c #ECC591",
"*X c #EEC995",
"=X c #F3CC96",
"-X c #F5CE98",
";X c #F8C693",
":X c #F6D19A",
">X c #FBD39C",
",X c #FFD89F",
"<X c #EED19E",
"1X c #CFCAB0",
"2X c #E6D5A6",
"3X c #FFDAA1",
"4X c #F8D8A5",
"5X c #EBCEA1",
"6X c #FFE0A6",
"7X c #FFE8AC",
"8X c #FFECBC",
"9X c #FAE5B7",
"0X c #FFF7B9",
"qX c #BEC5C6",
"wX c #C4C7C6",
"eX c #CCD0CF",
"rX c #D2D6D5",
"tX c #D6DAD9",
"yX c #D9DDDC",
"uX c #D4D8D7",
"iX c #CDD1D1",
"pX c #DCE0DF",
"aX c #FAEDC4",
"sX c #FEF7C9",
"dX c #FEFAD4",
"fX c #F7F8D7",
"gX c #EEF3D2",
"hX c #DFE3E1",
"jX c #E1E5E4",
"kX c #E7EBEA",
"lX c #FEFFE4",
"zX c #FFFFEB",
"xX c #F6F8F0",
/* pixels */
"                                                                                                    ",
"                                                                                                    ",
"                X X : : : : : : : -         - : : : : -                                             ",
"              r ' ' a.s.s.s.s.s.d.2.. < < . 3.d.s.s.d.2.. <                                         ",
"          . p [ d.a.a.a.a.a.a.a.a.a.d.d.d.d.a.a.a.a.a.a.d.a.i                                       ",
"        . p [ d.a.a.a.a.a.9.7.7.7.7.7.7.7.9.7.7.7.7.7.7.7.a.d.r                                     ",
"        . i [ s.a.a.a.a.a.3.<.<.<.<.<.<.<.f.8.<.<.<.<.<.2.7.a.x                                     ",
"        . i [ d.a.a.a.s.{  X>X>X>X>X>X>X>X:X:X:X:X:X>X>X=X<.a.f.c                                   ",
"        . r { d.a.a.a.9.2. X-X=X=X=X=X=X=X=X=X-X:X-X=X=X-X:Xa.s.x                                   ",
"        X x X.s.a.a.a.[ &X:X-X-X-X-X-X-X-X-X-X&X+X=X>X:X:X=XX.a.x                                   ",
"      . g o.d.a.a.a.9.{  X:X-X-X=X-X>X:X>X-X>X1.. 6.&X+X@X=X1.s.x                                   ",
"      . p X.s.a.a.a.X.3.@X:X-X:X>X-X X X X=X>Xl.1.] q q M -Xo.s.x                                   ",
"      . p X.d.a.a.7.X.=X:X=X-X&X Xz.y y q &X-X:X>X[.| 1.8.-Xo.s.x                                   ",
"      . p X.d.a.a.X.{ &X-X=X>Xl.+ t N ,.| &X:X+Xx.+X>X>X>X=Xo.s.x                                   ",
"      . p X.d.a.7.X.m &X-X-X:X].| ,.6.#X#X=X:X&X#X#Xx.x.-X=X1.a.x                                   ",
"      . r [ d.7.[ [ M &X-X-X-X&XM.#X#X#X#X=X:X].t.{.2X2X-X=X[ d.x                                   ",
"      : M <.s.7.X.m m &X-X-X=X<X2X2X2Xt.t.*X>X .. ~.zXdX=X=XH <.g                                   ",
"    . x 2.d.s.a.{ N M &X-X-X=X9XlXlXgX. . +X>X,.. ^.lXsX=X=Xz M r                                   ",
"    . g o.d.7.] p N t &X-X-X=X9XlXdXgX. . +X3X] . ~.lXsX=X=Xy.G .                                   ",
"    . g 1.9.2.q.8.z 8.*X-X-X=X4XdXlXfXQ.~.*X>X}.W.1XlXdX=X:XsXD } H                                 ",
"    . g 3.{ { >X:Xq.>X-X-X-X-X=X4XaXaXdXdX4X$XdXzXzXfX9X=X-X8Xj =X0..             % & & & & %       ",
"    . g [ w.l.h.:X3X=X-X=X-X-X-X=X$X$X%X%X=X=X9XaXaX9X$X-X-X8Xj '.|               % : : : > %       ",
"    i M + }.0XN.N.z.=X-X>X:X=X=X-X:X-X-X3X-X>X=X$X$X=X:X=X-X8XF .._ <             & @ @ @ @ >       ",
"  . M N B 5.M.:.>.E =X:Xl.&X3X:X=X=X=X>Xx.>X[.=X>X-X-X-X=X-X8X% t ' g .           # E W W R @       ",
"  . b m 7._ y ;.) b.=X>X. H e.[.3X3X>Xz.z.z.z.z.@X:X-X-X-X-X4X}.H m p .           @ &.$.$./ .       ",
"  . b M o.2...@.b.3X-X:X].l . F w.0.w..X6X[.-X X X:X-X-X-X-X=XsXJ t g .           W %.*.p.u.Q       ",
"  . b m 1.f.g.XX3X=X-X-X3X} . . . . . y.| -X-X>X:X-X-X-X=X=X=X8XJ z g .       1 m.=.$.i.n.i.u.!     ",
". h M M ] <.s.g..X>X=X-X-X].l.} . . . . 6.&X-X=X-X-X-X-X:X9X4XsXJ t g .       r u.) ( *.i.n.i.*.@   ",
". N N N b [ d.d.s.x.>X=X=X:X3X Xe.w.w.l.>X=X=X=X=X=X=X=X-X4XsX^.F N g .       . 0 0 %.=.-.p.*.u .   ",
". m N N m 1.7.{ c.s.z.>X3X>X>X3X6X6X6X6X>X3X3X3X3X3X3X,X3X9Xr.; B c 8 s     l o.| o.~ U ^ / T ..... ",
". N N M N { M . x ] 3.| ,.4.,.4.4.,.,.,.4.4.,.6.4.,.4.,.4.5.= m g 1 . . . . > ;X;Xb.8 1X`.e l.;X.X].",
"  r N ' b q ] ].e.. d.[ . . . . . . . . . . . . . . . . ; Q ] 7.x . | [.].].].:X>X|.w #.^.` 0.7X3X>X",
"    1 2 0.[. X3X>X[.G d.b 9 . L ~.. . . . . . E.L . 9 g 9.c.b H . 4.=X3X>X>X>X=X|._ 1XP ! z.r.F | 3X",
"      . w.3X>X=Xz.,.. 8.F . K.rXuX_.wX).).)._.hXyX#.. c a.b 7.. 0.=X:X=X:X:X:X-Xv.. gX!...;X>Xw.w.} ",
"      0.&X:X&Xv.g.. . d.= R.uXhXyXrXE.jXjXjXkXQ.).yXE.y 7.. M . +X>X:X@Xz.z.|.XXH . fX~.+ a e.7X>X. ",
"  . w.>X>X:X@Xa.n * . y (.hXhXuXpX).. yXuXuXjXS W.kXqX+ d.. . . c.oXoX|.k.v.h.v I I @.G Q j.e.s l > ",
". z.:X:X=X:X@Xo.. 8 X . eXE._.jXyXrXwXyXyXyXyXwXrX_. .1.h O * . z v v v G B n . Y Y ^ 0 +.oX.X X].. ",
" X:X-X-X-X-X=X&Xz.. . . rXR.. (.hXuXyXuXuXuXuXyXkX(.. c .                     : Y Y &.&.Q 6 S J }   ",
",X=X-X-X-X-X-X:X>X2X< . K S . R.jXjXjXjXjXjXjXhX(.9 . . *                     > Y Y &.=.$.( ( / .   ",
"z.-X-X=X-X-X:X:X-X8X9 . . . . (.eXS K K K K S iX/.. % X                       & e e u f T R R f $   ",
"v.z.=X:X=X-X.X|.aXaX; . 4 $ O S S . . . . . . j i . .                                               ",
"a h.|.v.4X4X$X.X'.F F.3 . . X . . . . X X X X B.Z.H.C..                                             ",
"  i a . OXsX9X X. V.I.F.F.F.Z.J.T.T.T.Z.F.F.F.I.I.Y.L..                                             ",
"        j F h S V.U.I.I.I.P.T.L.7 V A T.U.I.I.I.D.Y.L..                                             ",
"        . C V.V.U.I.G.G.G.I.Z Z C.# C.7 G.G.G.G.D.Y.L..                                             ",
"      . Z S.F.U.I.I.I.I.I.I.G.I.S.6 S.C.S.I.I.I.P.Y.L..                                             ",
"      . 4 3 3 5 3 3 3 3 3 3 6 6 4 . 4 3 $ 3 3 3 3 6 3 .                                             ",
"    . s D k k k k k k k k k k k s & k k k k k k k k k s .                                           ",
"    . X o o o o o o o o o o o o X . o o o o o o o o o X .                                           ",
"                                                                                                    "
};
