/* XPM */
static char *_47452e130df4bd8a80a6cd8ae57957c93WjVyYtq3nBOEWX[] = {
/* columns rows colors chars-per-pixel */
"50 50 238 2 ",
"   c None",
".  c #000000",
"X  c #0B0100",
"o  c #04040B",
"O  c #130000",
"+  c #1C0000",
"@  c #19120B",
"#  c #000013",
"$  c #010815",
"%  c #021413",
"&  c #181514",
"*  c #0B1014",
"=  c #250100",
"-  c #360000",
";  c #24180C",
":  c #301711",
">  c #29221B",
",  c #3C2A1A",
"<  c #352716",
"1  c #000529",
"2  c #001B26",
"3  c #000D34",
"4  c #132C31",
"5  c #242122",
"6  c #20282E",
"7  c #352B20",
"8  c #39332D",
"9  c #440700",
"0  c #441600",
"q  c #6D0000",
"w  c #4A2402",
"e  c #402E1C",
"r  c #4E381B",
"t  c #48331B",
"y  c #553619",
"u  c #543104",
"i  c #4D3C2B",
"p  c #4E3A24",
"a  c #543D2B",
"s  c #553D25",
"d  c #42342D",
"f  c #714A10",
"g  c #5D452D",
"h  c #594027",
"j  c #564836",
"k  c #5E513D",
"l  c #664A2E",
"z  c #684C32",
"x  c #6A583F",
"c  c #6B5338",
"v  c #725435",
"b  c #74553B",
"n  c #75583A",
"m  c #7B5C3C",
"M  c #744A2C",
"N  c #002D46",
"B  c #003747",
"V  c #003958",
"C  c #000061",
"Z  c #0D425D",
"A  c #004364",
"S  c #00496C",
"D  c #165677",
"F  c #004F73",
"G  c #2E5972",
"H  c #6B5A41",
"J  c #735D44",
"K  c #776347",
"L  c #6C6551",
"P  c #777978",
"I  c #6B7067",
"U  c #484C4F",
"Y  c #81161C",
"T  c #AE081A",
"R  c #9A3000",
"E  c #B61822",
"W  c #C80000",
"Q  c #CC0013",
"!  c #C90625",
"~  c #CB1425",
"^  c #D03225",
"/  c #8B4D19",
"(  c #AC4D09",
")  c #857100",
"_  c #805E3B",
"`  c #83623E",
"'  c #96683F",
"]  c #B46530",
"[  c #C76D17",
"{  c #D47411",
"}  c #CF742C",
"|  c #EB7523",
" . c #EC6026",
".. c #895944",
"X. c #846443",
"o. c #8A6948",
"O. c #976949",
"+. c #9A744D",
"@. c #96714B",
"#. c #877558",
"$. c #997856",
"%. c #906F4F",
"&. c #A1774E",
"*. c #A47C54",
"=. c #AA7F54",
"-. c #AC795B",
";. c #B37A5C",
":. c #AB6C4F",
">. c #D15952",
",. c #FF8C1A",
"<. c #F6911E",
"1. c #FD8D24",
"2. c #F68925",
"3. c #FC9627",
"4. c #E7B520",
"5. c #FFFD00",
"6. c #F1D100",
"7. c #94815F",
"8. c #AE8155",
"9. c #AC835A",
"0. c #A4835A",
"q. c #B1865A",
"w. c #B58A5E",
"e. c #B88B5E",
"r. c #B18255",
"t. c #BF8F4C",
"y. c #928A70",
"u. c #A98B65",
"i. c #B78C60",
"p. c #BA8E61",
"a. c #B78362",
"s. c #BE9264",
"d. c #B5956C",
"f. c #BA986D",
"g. c #B99A71",
"h. c #A99470",
"j. c #BDA278",
"k. c #F79549",
"l. c #F9AB58",
"z. c #F9A24E",
"x. c #C68C69",
"c. c #C29466",
"v. c #C49669",
"b. c #C59A6B",
"n. c #CB9C6C",
"m. c #CD916D",
"M. c #D1926E",
"N. c #CB9C73",
"B. c #D49A73",
"V. c #D4856C",
"C. c #D0A06F",
"Z. c #CCA475",
"A. c #C9A779",
"S. c #D4AB7B",
"D. c #DAA476",
"F. c #DAB17F",
"G. c #EFAF72",
"H. c #F7DC7B",
"J. c #F2E976",
"K. c #005783",
"L. c #17628B",
"P. c #186C99",
"I. c #386986",
"U. c #276D94",
"Y. c #296A90",
"T. c #1A75A6",
"R. c #027FB9",
"E. c #2379A9",
"W. c #2B7BA9",
"Q. c #467692",
"!. c #437FA0",
"~. c #1383B9",
"^. c #2387BD",
"/. c #2783B6",
"(. c #3D86B1",
"). c #4686A9",
"_. c #4E95BC",
"`. c #248BC3",
"'. c #258FC9",
"]. c #298FC9",
"[. c #288AC0",
"{. c #2991CB",
"}. c #2691CC",
"|. c #3895CA",
" X c #4A9DCC",
".X c #5CB3E4",
"XX c #48A8DE",
"oX c #8D908F",
"OX c #949797",
"+X c #848888",
"@X c #B1A483",
"#X c #A8ACAB",
"$X c #BABDBC",
"%X c #B3B7B6",
"&X c #AEB5A8",
"*X c #AD9C88",
"=X c #DBB684",
"-X c #D8B885",
";X c #CEB38B",
":X c #E8AC81",
">X c #E2BC8A",
",X c #E8B888",
"<X c #F2BA8B",
"1X c #DCC185",
"2X c #DFC388",
"3X c #D5C199",
"4X c #E2C48A",
"5X c #EBC28E",
"6X c #E8C98E",
"7X c #EBC491",
"8X c #ECC994",
"9X c #E4C799",
"0X c #F4C592",
"qX c #F3CC96",
"wX c #F5CE98",
"eX c #FACC96",
"rX c #F7D19A",
"tX c #FDD59E",
"yX c #FBD39C",
"uX c #F6D08F",
"iX c #FFDBA2",
"pX c #FAD8A6",
"aX c #EFD1A6",
"sX c #FDE8B6",
"dX c #BEC1C0",
"fX c #C5C8C8",
"gX c #CED2D1",
"hX c #D6DAD9",
"jX c #D9DDDC",
"kX c #D3D7D6",
"lX c #CCD0CF",
"zX c #F0DDC0",
"xX c #DCE0DE",
"cX c #FFF3C2",
"vX c #FAFCDB",
"bX c #DEE2E1",
"nX c #E1E5E4",
"mX c #E4E8E7",
/* pixels */
"                                                                                                    ",
"                                                                                                    ",
"                                                                                                    ",
"                  X ; < g g g g g g g z           h l g g l a                                       ",
"                . v +.+.n.n.n.n.n.n.n.n.o.l c z n v.n.n.n.n.c.v b :                                 ",
"              < X.w.n.v.s.s.s.c.v.v.v.v.n.C.C.C.n.v.v.v.v.v.b.C.C.*.a                               ",
"            . c w.b.s.c.c.c.v.e.=.8.8.8.=.=.=.8.e.8.8.8.8.8.8.=.s.C.+..                             ",
"            . l 9.v.c.c.c.c.i.b.A.Z.Z.Z.Z.Z.Z.Z.F.Z.Z.Z.Z.Z.Z.Z.q.i.9.n                             ",
"            . z 9.v.c.c.c.b.O.S.iXtXyXyXiXiXiXiXyXtXyXyXyXtXtXtX=Xb.n.w..                           ",
"            . h 9.v.c.c.c.q.Z.5XwXwXtXtXA.d.f.A.wXqXyXtXrXqXqXqXiXZ.e.*..             % #           ",
"          ; l *.s.c.c.c.v.&.4XtXwX7Xd.f.X.w X X.rXrXA.u.=XiXtXtXyXb.q.9..         . . , } y         ",
"          ; m s.v.c.c.s.9.' =XrXrX>X- 9 w d.>X>XwXrXX.. K d.u.u.qXN.q.9..       u.rXA.. 1.1./       ",
"          ; n i.c.c.c.s.*.=XqXwXwXqX>X>X>XqXiXyXwXwX5X7Xd.= w 0 7XZ.q.9.. . . j.d.g.iXa.M 2.1.( #   ",
"          ; n i.c.c.i.=.=.qXrXwXwXwXtXtX8X4X1X4XwXwX6X6X6X7X5X4XrXb.w.*.* 7XqXrXqXd.J D.2 { 1.1.[ # ",
"          ; n i.c.c.i.+.` 7XrXwXwXqX1X1X1X1X1X4XwXwX4X-X1X4X6XrXyXZ.M #.qXyXK =XiX5X;.i # { 1.| ^ ~ ",
"          ; n i.v.w.*.&.n 7XrXwXwXqX1X1X1X1X1X4XwXwX4X1X1X1X1XwXyXZ.y #.iXwXqXK g.eXx.. T |  .! ! ~ ",
"          ; n i.v.w.@.n n 7XrXwXwXqX1X1X1X1X1X4XwXwX4X1X1X1X1XwXtXd.. H F.qXtXK +.a.I vXvXV.W ! E % ",
"        , X.c.c.v.e.@.n m 7XrXwXwXqX1X1X1X1X1X4XwXwX4X1X1X1X1XwXrX$.X w : = . N.+.y.vXvX>.Q ~ T %   ",
"        , X.c.v.s.@.z n v 7XrXwXwXqX1X1X1X1X1X4XwXwX4X1X1X1X1XrX4 { 3.3.3.^ W zX&X. - p T ! Y %     ",
"        , X.s.s.0.$.o.z $.7XrXwXwXqX2X1X1X1X1X4XwXwX4X1X1X1X1XwX7.:.z.l.l.<. .q . $.<XyXK %         ",
"        , X.v.u S.iX4X0.yXwXwXwXwXwXwX4X4X4X4X6XwXwX4X1X1X1X4XtX8X%.] l.l.2.3.f $.<XqXwX:X..        ",
"        , X.q.j.x.F.yXpXrXwXwXwXwXwXwXwXwXwXwXwXwXwX6X4X4X6XtX=X/ { k.l.z.1.| R O.x.B.wXD.b         ",
"        e m z ;XaXuXH.H.,XqXwXwXwXwXwXwXwXwXwXwXyXwXyXrXtXrXj.. [ 2.,.,.1.[ k. .q j <XwXD.b         ",
"        e m m 9 *XJ.5.6.( 5XrXwXwXwXwXwXwXwXrXwX=XyX>XqX8Xu.. 7 # / } [ ( 4 t.] ..A.tXrX:X..        ",
"        e m n Z.- ) 4.} D.qXwXwXwXwXwXwXwXrX5XS.S.F.S.,X$.. i & : 2 . B *Xz & . j.iXqX,Xa.l         ",
"        t m n i.0.:.V.F.yXwXwXwXwXwXwXwXwXrX5X=XyXF.rX5XA.7.. 7 8 . n 9XsX. _ = d.tX0XM.o           ",
"        < m n s.n.B.,XiXqXwXwXwXwXwXwXwXwXwXrXyXwXyXwXyXiXrXd.. . $.>XiXaX@ v . g.tX0XB.a           ",
"      t v m n o.w.c.N.,XyXwXwXwXwXwXwXwXwXwXwXwXwXwXrX=Xn.>XiX;XA.pXsXsXsX. v X g.iXwXD.a           ",
"    . h ` n n z 9.b.v.c.Z.wXwXqXqXqXqXqXqXqXqXqXqXqXwX7XZ.r.Z.rXtXwXsXsXL z X.. d.eXB.b             ",
"    . s m n n v i.*.X.n.c.n.0XiXtXtXtXtXtXtXtXtXtXtXtXiXtXqX0XyXyXsX3Xj u X.. g.qX0Xx..             ",
"    . h ` n n m o.a . , g e.o.k x x x H H x x x x x x H H K K x x L k h n < -XyX0Xv.e               ",
"      . p m m v y d.qX-X. i.c.n . . . . . . . . . . . . . . . . t &.+.@.w.. 8X<X-..                 ",
"          @ . =XqXwXrXrX8Xk 9.@.. . 5 gXP . @ . . . . %X&X. . . q.n.9.s x qX:Xo..                   ",
"            X 4XyXrX7Xm.< . 9.O.. I jXjXhXkXkXhXhXhXhXhXxXdX. . i.b o.9.. 8 >                       ",
"          J wXwXrX,XB.x.. . =.` oXmXjXjXmX+XP mXjXjXmXP +XmXkX# i.X.. . &                           ",
"      . u.tXwXwXrX<X-.. & X . #XbXgXbXjXbXOXoXbXjXjXbXoXOXbXfXj q.b                                 ",
"    7 A.iXwXwXwXrX<Xv.j . . . %X$X. lXhXhXjXjXhXhXhXhXjXmXfX. i.e                                   ",
"  . =XiXqXwXwXwXwXwXtXwX#.> . OX#X. . lXbXbXbXbXbXbXnXjXgX#X. . .                                   ",
"  . f.wXrXwXwXwXwXrXwXwXcXL . . . . 8 jXfX$X$X$X$X$X$XjX#X. X + *                                   ",
"  . ;.:X7XrXrXwXwX7X7XsXcXl . 6 6 # 6 %XU . . . . . . OXOX3 D D                                     ",
"    X.M.:X0X0XpXrX,X,XpX;XQ.3 . . . . . . = O O O O = . . Z }.}.T.1                                 ",
"      z a.:.O.sXcXsX5XM C ~.E.L.L.L.L.Y.K.U.).).).).L.L.Y.P.`.^.}.(.G                               ",
"              h.;X@X%.. (.U.E.`.}.'.'.'.XX_.Q.!.Q.!. X|.'.'.^.`.R..X_..                             ",
"                  . . I.U.E.E./.^.^.^.^.I.G V . A . (.|.^.^.^.^. X).G                               ",
"                  G W./.^.].{.{.].].{.{.T.'.E.4 /.U.T.`.{.].].'..XI.                                ",
"                . N V V S A A A A A A A F S N $ V A B V A A A A D B                                 ",
"              . d j p i r r r r r r r r u r , @ i p i p r r r r u j 8 .                             ",
"              . & > 5 5 5 5 5 5 5 5 5 5 5 5 & X 5 5 5 5 5 5 5 5 5 > @ .                             ",
"                                                                                                    ",
"                                                                                                    "
};
