/* XPM */
static char *e4c3ab2d5b4d40b6bb84a78b7318f51aorvVPPWJnDeFfnfW[] = {
/* columns rows colors chars-per-pixel */
"50 50 227 2 ",
"   c None",
".  c #000000",
"X  c #00020B",
"o  c #0A0403",
"O  c #1C0000",
"+  c #110C06",
"@  c #150000",
"#  c #00170C",
"$  c #191007",
"%  c #19130C",
"&  c #000012",
"*  c #000319",
"=  c #001319",
"-  c #131413",
";  c #1B1919",
":  c #1B1615",
">  c #271C13",
",  c #30130B",
"<  c #2B241B",
"1  c #3E2D1D",
"2  c #332618",
"3  c #00243A",
"4  c #0F202D",
"5  c #222A32",
"6  c #2F2C27",
"7  c #471900",
"8  c #4D1109",
"9  c #710E13",
"0  c #412D1C",
"q  c #42301E",
"w  c #4B361F",
"e  c #562400",
"r  c #732F06",
"t  c #4B3929",
"y  c #503E2C",
"u  c #553E25",
"i  c #433B34",
"p  c #503F30",
"a  c #58451F",
"s  c #4E412D",
"d  c #5C442B",
"f  c #51412E",
"g  c #514134",
"h  c #484231",
"j  c #63492D",
"k  c #644528",
"l  c #6A4E32",
"z  c #664C31",
"x  c #6D5134",
"c  c #6B563D",
"v  c #725436",
"b  c #7B5C3B",
"n  c #75573A",
"m  c #77502F",
"M  c #002E46",
"N  c #00344F",
"B  c #093047",
"V  c #003653",
"C  c #113A4D",
"Z  c #1C1350",
"A  c #00405F",
"S  c #2D4C5A",
"D  c #00496C",
"F  c #2D5B76",
"G  c #575755",
"H  c #494D4B",
"J  c #7A5D42",
"K  c #6D4F48",
"L  c #7B6649",
"P  c #7D735A",
"I  c #767877",
"U  c #686A63",
"Y  c #5F6A6F",
"T  c #8B0002",
"R  c #AC0000",
"E  c #900022",
"W  c #B41924",
"Q  c #AC0022",
"!  c #CC0000",
"~  c #D20C27",
"^  c #C82839",
"/  c #894300",
"(  c #954F04",
")  c #83593E",
"_  c #95533F",
"`  c #84613D",
"'  c #936A3D",
"]  c #C77518",
"[  c #D3731A",
"{  c #E97517",
"}  c #E04C26",
"|  c #D36A30",
" . c #EB752C",
".. c #875C45",
"X. c #896746",
"o. c #926C47",
"O. c #987954",
"+. c #91714D",
"@. c #A4784C",
"#. c #A47C54",
"$. c #AE7659",
"%. c #A97055",
"&. c #9E7E61",
"*. c #AA7E63",
"=. c #C36B43",
"-. c #7B807B",
";. c #F58C17",
":. c #ED8627",
">. c #D38626",
",. c #C9C400",
"<. c #FFF300",
"1. c #FEE025",
"2. c #E8C82A",
"3. c #AC8359",
"4. c #A8835A",
"5. c #B2865B",
"6. c #B5895D",
"7. c #B88B5E",
"8. c #B8975A",
"9. c #978668",
"0. c #9E906A",
"q. c #A98863",
"w. c #BA8E62",
"e. c #B88D65",
"r. c #BB9265",
"t. c #B3976A",
"y. c #AE9B75",
"u. c #D29056",
"i. c #FDB15E",
"p. c #F7A453",
"a. c #C78E6A",
"s. c #C29566",
"d. c #C49668",
"f. c #C6996A",
"g. c #CA9B6C",
"h. c #CB936C",
"j. c #D69970",
"k. c #C8A578",
"l. c #CAA577",
"z. c #D2AB7C",
"x. c #D8A77A",
"c. c #D4B67B",
"v. c #FDB361",
"b. c #E4A47C",
"n. c #ECAA7F",
"m. c #F49D4A",
"M. c #085983",
"N. c #076C9C",
"B. c #1A6B97",
"V. c #1D6892",
"C. c #306A8A",
"Z. c #1C76A6",
"A. c #006BA8",
"S. c #2876A4",
"D. c #1F87BE",
"F. c #2386BD",
"G. c #2586BA",
"H. c #7E8080",
"J. c #5297BC",
"K. c #4B95BE",
"L. c #248DC5",
"P. c #298EC7",
"I. c #288FC8",
"U. c #2890C9",
"Y. c #3496CD",
"T. c #4B9BC8",
"R. c #53A7D6",
"E. c #858887",
"W. c #999B9B",
"Q. c #929696",
"!. c #94918D",
"~. c #B0AB95",
"^. c #9DA2A2",
"/. c #B9BEBE",
"(. c #ADB1AA",
"). c #DAB585",
"_. c #DAB886",
"`. c #C1B995",
"'. c #E1AD82",
"]. c #E3BE8C",
"[. c #EAB687",
"{. c #EDB58A",
"}. c #BDC3A9",
"|. c #DAC69C",
" X c #D8C084",
".X c #E4C28D",
"XX c #E6C589",
"oX c #ECC591",
"OX c #EEC994",
"+X c #EAC999",
"@X c #F3C592",
"#X c #F4CC96",
"$X c #F5CE98",
"%X c #F6D19B",
"&X c #FDD59E",
"*X c #FAD39C",
"=X c #FBD59C",
"-X c #F2CB8F",
";X c #C4C9AF",
":X c #D9C9A4",
">X c #CBCFB3",
",X c #F6D5A4",
"<X c #F9D6A1",
"1X c #FFD9A1",
"2X c #F9DBAA",
"3X c #EEDDB2",
"4X c #EDDAAE",
"5X c #FEE0AB",
"6X c #F9E6B8",
"7X c #FFF48E",
"8X c #C4C8C7",
"9X c #D6DAD9",
"0X c #D9DCDB",
"qX c #D2D6D5",
"wX c #CED1D0",
"eX c #DCE0DF",
"rX c #FCEECB",
"tX c #FAF3CC",
"yX c #FBF4C5",
"uX c #F9FBD9",
"iX c #E5EBCD",
"pX c #DEE2E1",
"aX c #E2E6E5",
"sX c #E6EAE9",
"dX c #FEFFE2",
"fX c #FFFFEB",
"gX c #EDF1F0",
/* pixels */
"                                                                                                    ",
"                                                                                                    ",
"                . o > q 1 1 1 1 1 q         2 q 1 1 q 2                                             ",
"              . z X.#.g.f.f.f.f.f.f.d t t > 4.g.f.f.g.4.> q                                         ",
"            . x 3.f.d.r.s.s.d.d.d.d.g.g.g.f.d.d.d.d.d.f.g.w.2                                       ",
"          . d 3.f.r.d.d.d.d.6.6.6.6.6.6.5.w.7.6.6.6.6.6.7.f.w..                                     ",
"          . u #.d.d.d.d.s.r.r.r.r.r.r.r.r.l.f.r.r.r.r.r.r.6.w.d                                     ",
"          . d 4.d.d.d.d.w.4.1X&X&X&X&X&X&X*X*X*X*X*X&X&XOXw.d.d..                                   ",
"          . w #.d.d.d.r.w.l.$X#X#X#X#X#X#X#X#X%X&X$X#X#X$X#X5.w..                                   ",
"          2 X.6.d.d.d.w.r.1X$X$X$X$X#X#X#X$X*X].z.oX1X&X&X].@.r..                                   ",
"        . j 6.f.d.d.r.3.6.*X$X$X#X#X&X&X&X%X&X4.. O.).z._.oX@.r..                                   ",
"        . d 4.d.d.d.6.4.).*X$X$X&X&Xz.k.k.oX*X).k.O.. o +.#X@.r..                                   ",
"        . d 3.d.d.w.3.f.1X$X$X#Xk.k.v 7 . ).*X$X$X].k.k.).OX@.w..                                   ",
"        . d 3.d.d.7.o.e.*X$X$XOX8 8 z t.t..X*X.Xc..X$X%X&X.X@.w..                                   ",
"        . j 3.d.w.5.o.4.&X$X$X#X8.8.8.XX-X$X$XXX_. X X.X$X.X#.w..                                   ",
"        . w 4.f.6.o.b q.&X$X$X%XyXyXtX0.L ].*XOXXXXXc.XX*X].X.d..                                   ",
"      . u O.r.d.7.o.z q.&X$X$X%XdXdXfXG . ).&Xy.x `.tX6X#X].v o..                                   ",
"      . z 7.d.f.6.b v q.&X$X$X%XuXuXdXU . ).1X9.. (.fXtX#X].8 n <         - - -                     ",
"      . j 3.g.#.k l x O.&X$X$X%XdXuXdXi . z.1XO.. ~.fXrX#X%X|.. .       - - : :                     ",
"      . j 6.O.k.OXt.O.OX$X$X$X$X2XuXdXiXiX,X#X3XiXtXdXtX-X<X6X. _.+     - - > > 2                   ",
"      . j w.` 5.@X#XOX*X$X$X$X$X#X,X,X2X5X%X-XtXfXfXtX%X#X<X4X, &X%     - : & & X                   ",
"      . l m |.].'.*X*X#X$X$X$X$X$X#X#X#X@X#X#X%X,X,X%X#X#X<X3X@ x..       & [ { m.@.. .             ",
"    . l b . :X7X<.2.j.*X$X$X$X$X#X$X$X$X%X$X%X#X#X#X#X$X#X<X3X. X.n $     & [ p.i.i.p.=..           ",
"    . v v 6.K ,.1.>.u.*X$X$X$X$X#X$X$X*Xg.OXz.].*X$X$X$X#X<X3X. b b $   & [ ;.p.v.i.v.u.. .         ",
"    . v v w.c ( ] j.*X$X$X$X#X$X$X$X%Xf.OXl.].z.).*X$X$X$X$X%X6X. b $   . p.| { :.;.;.] K h..       ",
"    . v v 5.d.h.[.%X$X$X%X.X. . + + + . ).$X$X$X$X$X$X$X$X#X%X6X. b $   # W 9 * ]  .E J [.&X.X.     ",
"    . v v 3.d.h.[.%X$X$X$X$XOX% . . . . . ).*X$X$X$X#X$X$X%X<X6X. b $   : . r.b.) }.>Xr x.OX#XOX.   ",
"  . n b b x 4.d.h.'.$X%X$X$X$X#Xt s s > .X*X$X$X$X$X#X#X,X6X6X4X. b $   . a.#X{.r }.>X. h < L OX.   ",
"  . v b b v 3.r.r.d.z.$X*X*X*X*X&X&X&X&X*X*X*X*X*X*X*X*X*X1X:X. ` v >   6 .X&X'...>X;Xo.1X1X&XoX.   ",
"  . n b b n 3.x d 6.6.f..X].].].].].].].].].]..X].].].].+X:X. L x . . f #X*X&Xb ;XfX}.8 g._.].]..   ",
"  . l b ) v k n L = z w.. . . . . . . . . . . . . . . . . 7 X.o.. . c *X$X$X1Xo.;XfX;X. t , n x..   ",
"    . j l O.O._.5X_.+.w.r.. < . I . . . . . . G H . < d 5.f.v 3.. L *X#X%X@X#XX.~.rX~.m {.n.{.OX.   ",
"        . ).1X*XOX.Xt.0 6.. . E.aXH.E.I I I U wX8X6 . J f.#.o.. O.&X#X%XOXb.b.L T ! R X.q.*.*.$..   ",
"        L ].$X@X[.%.. J 7.. Q.sX9XaX8XpXaXaXsX8XqX8XH v 4.. #.s 1X$X%XoXb.a.s._ W ^  .;./ ( / . :   ",
"      L $X*X%X[.a.X.. u &.^.gXqX0X0X. 8X9X9XpXU E.gX/.e r.. . y @X@X@Xb.h.1 . T ~ ~ }  .:.:.[ *     ",
"    O.$X*X#X%X{.) . 2 . Y aX(.aX0X0XW.qX0X0XeX(./.8X!.' X.. > 2 $.$.$.e.X       9 W Q 9 X X         ",
"  q.*X$X#X$X%X@Xz.J . . I 9X. (.0X9XaX9X9X9X9XpXgX^., X.. > . . . . . .           # #               ",
". &X$X#X$X$X$X$X1X+X9.. G W.. . 9XaXaXaXaXaXsXeX/.I . . >                                           ",
". x.%X$X#X$X$X%X@X2X:X. . . + H aXW.W.W.W.W.Q.qX^.. O O                                             ",
". j.'.#X%X#X$X[.+XyX|.. 4 5 = 5 Q.. . . . . . I I D Z.M.                                            ",
"  X.j.{.{.,X%X[.oX).-.M.. . . . . O o . . O O . . V.U.L.M.                                          ",
"    J ..9 4XyX6Xz.Z A.P.B.Z.Z.Z.S.N.K.J.T.S.N.S.S.Z.F.Y.K..                                         ",
"          P 0.9.a . F G.U.I.I.I.I.R.C.C.F T.Y.L.I.I.D.T.J..                                         ",
"              . V C.V.G.F.F.F.F.F.S B.. D S S.L.F.F.D.Y.J..                                         ",
"              F S.G.U.U.P.P.P.P.P.Z.U.B S.B.S.F.I.I.L.T.T..                                         ",
"            . 3 M M V N N N N N N V V & 3 N 3 M V N N V C .                                         ",
"          . i g g p y y y y y y y y f + t g g p y y y y y i .                                       ",
"          . % : ; ; ; ; ; ; ; ; ; ; ; . : ; ; ; ; ; ; ; ; % .                                       ",
"                                                                                                    ",
"                                                                                                    "
};
