/* XPM */
static char *e93e1cfec2764958e70306c874615fa84v7IM8weWiBP4TzP[] = {
/* columns rows colors chars-per-pixel */
"50 50 188 2 ",
"   c None",
".  c #000000",
"X  c #01010A",
"o  c #0B0A09",
"O  c #000011",
"+  c #060F14",
"@  c #031212",
"#  c #131313",
"$  c #1C1A17",
"%  c #260200",
"&  c #2B0F00",
"*  c #271B0F",
"=  c #2B1D12",
"-  c #29251D",
";  c #372315",
":  c #32271C",
">  c #3E240F",
",  c #091C28",
"<  c #072739",
"1  c #37352C",
"2  c #383931",
"3  c #481A00",
"4  c #43301C",
"5  c #5A391B",
"6  c #673D00",
"7  c #4B3721",
"8  c #473422",
"9  c #543D25",
"0  c #573F30",
"q  c #747400",
"w  c #5E432A",
"e  c #4F4339",
"r  c #5A4B3A",
"t  c #6B4B2C",
"y  c #664729",
"u  c #664B31",
"i  c #6E5234",
"p  c #64533D",
"a  c #735334",
"s  c #755738",
"d  c #7B5C3C",
"f  c #775939",
"g  c #714E31",
"h  c #7F613F",
"j  c #0B3850",
"k  c #115073",
"l  c #0F4563",
"z  c #534741",
"x  c #554943",
"c  c #5B5543",
"v  c #615846",
"b  c #745C45",
"n  c #6A4F43",
"m  c #73725C",
"M  c #8E0007",
"N  c #AA001B",
"B  c #8B3B00",
"V  c #B71622",
"C  c #A91520",
"Z  c #CC1626",
"A  c #DF3B24",
"S  c #904900",
"D  c #AB5F1B",
"F  c #B96D00",
"G  c #81603F",
"H  c #E15500",
"J  c #CE7A0D",
"K  c #EA770A",
"L  c #C77227",
"P  c #DF7D20",
"I  c #C5702D",
"U  c #F67321",
"Y  c #815A44",
"T  c #896546",
"R  c #876745",
"E  c #916E49",
"W  c #93724D",
"Q  c #9B744D",
"!  c #836D50",
"~  c #9B6F54",
"^  c #80765D",
"/  c #9D7855",
"(  c #A3784E",
")  c #A57C52",
"_  c #A77D55",
"`  c #D47548",
"'  c #D47F76",
"]  c #F78918",
"[  c #E98221",
"{  c #F68922",
"}  c #F58922",
"|  c #FE9122",
" . c #FEF108",
".. c #A8835A",
"X. c #B0875C",
"o. c #B3895E",
"O. c #998D73",
"+. c #AA8E68",
"@. c #AB8E67",
"#. c #BB8F62",
"$. c #B78861",
"%. c #BE9164",
"&. c #B1946C",
"*. c #BD9E73",
"=. c #B6A17C",
"-. c #FC9A43",
";. c #ED8048",
":. c #FDA749",
">. c #FBA857",
",. c #EFA951",
"<. c #C98F6B",
"1. c #C19466",
"2. c #C59668",
"3. c #C69869",
"4. c #C99B6C",
"5. c #CD936E",
"6. c #D59973",
"7. c #D99D76",
"8. c #D5946E",
"9. c #C5A67B",
"0. c #DDA27A",
"q. c #D7AB7D",
"w. c #FCB260",
"e. c #E1A47B",
"r. c #D3964C",
"t. c #1C6F9D",
"y. c #23729D",
"u. c #1F7AAB",
"i. c #2375A1",
"p. c #2578A5",
"a. c #1E86BE",
"s. c #2486BC",
"d. c #2188BF",
"f. c #2282B6",
"g. c #5399BE",
"h. c #2489C1",
"j. c #2C8EC5",
"k. c #3691C5",
"l. c #3E97CA",
"z. c #58A4CC",
"x. c #5BA9D3",
"c. c #8A8C8C",
"v. c #828484",
"b. c #96988D",
"n. c #B1A281",
"m. c #9EA0A0",
"M. c #B0B4B3",
"N. c #B5B9B8",
"B. c #A4A8A8",
"V. c #D89788",
"C. c #D6B283",
"Z. c #DEBA85",
"A. c #DDBA88",
"S. c #CDAE80",
"D. c #E6AE82",
"F. c #E2BD8A",
"G. c #E2B784",
"H. c #F2BE8D",
"J. c #DBC185",
"K. c #E7C48E",
"L. c #ECC18E",
"P. c #EBC491",
"I. c #EDC994",
"U. c #F1C591",
"Y. c #F3CB95",
"T. c #F5CE98",
"R. c #F8CF9A",
"E. c #F7D09A",
"W. c #FBD39C",
"Q. c #F4C78D",
"!. c #FFD8A0",
"~. c #F7DAAA",
"^. c #F7DFB2",
"/. c #FFECBC",
"(. c #FFE6B5",
"). c #FFF4AF",
"_. c #BFC2C2",
"`. c #CCCFCE",
"'. c #C1C5C4",
"]. c #D8DCDB",
"[. c #D5D8D7",
"{. c #F9EBC2",
"}. c #FFF3C3",
"|. c #FBFEDC",
" X c #F9F8D4",
".X c #DEE2E1",
"XX c #E1E5E4",
"oX c #FDFFE2",
/* pixels */
"                                                                                                    ",
"                  . . . . . . . . . .         . . . . . .                                           ",
"                = d f #.1.1.1.1.1.1.$.. . . . ) 3.1.1.1.$.. .                                       ",
"              ; R 1.1.1.1.1.1.1.1.1.1.1.1.1.1.1.1.1.1.1.1.1.2.7                                     ",
"            4 E 2.1.1.1.1.1.1.1.1.1.1.1.1.1.1.1.1.1.1.1.1.1.1.3.u                                   ",
"            4 E 2.1.1.1.1.1.X.) _ _ _ _ _ ) %.X.) _ _ _ _ _ 1.3.u                                   ",
"            4 E 2.1.1.1.1.) q.W.T.T.T.T.T.T.T.T.T.T.T.T.T.Y._ %.4.d                                 ",
"            4 E 2.1.1.1.1.) q.W.T.T.T.T.T.T.T.T.T.T.T.T.T.T.T.4.3.d                                 ",
"            4 E 2.1.1.1.( Z.E.T.T.T.T.T.T.T.T.T.T.T.T.T.T.T.E.X.1.d                                 ",
"        . 7 Q 3.1.1.1.1.( Z.E.T.T.T.T.T.T.T.T.W.*.5 @.W.T.T.E.X.1.d                                 ",
"        . 7 Q 3.1.1.1._ Q Z.E.T.T.T.T.T.T.T.T.W.*.t d d d R T.X.1.d                                 ",
"        . 7 Q 3.1.1.1.( K.E.T.T.T.T.P.a d t F.E.T.E.C.y d R T.X.1.d                                 ",
"        . 7 Q 3.1.1._ Q K.E.T.E.C.y d d d t F.W.K.J.K.T.T.T.E.X.1.d                                 ",
"        . 7 Q 3.1.1._ a F.E.T.E.C.y d h Z.J.Y.R.K.J.J.J.J.T.E.X.1.d                                 ",
"        . 7 Q 3.%.) _ a F.E.T.T.I.J.J.J.J.J.Y.R.K.J.J.J.J.T.E.X.1.d                                 ",
"        . 7 Q 3.%.) d t F.E.T.T.I.J.J.J.J.J.Y.R.K.J.J.J.J.T.T.E #.d                                 ",
"      . 9 ) 3.1.%.) d t F.E.T.T.I.J.J.J.J.J.Y.R.K.J.J.J.J.T.E.W d 7                                 ",
"      . 9 ) 3.1.#.f d t F.E.T.Y.^.oX|. X1 . A.!.+.. b.oX XT.E.W d 7         # # #                   ",
"      . 9 ) 4.$.s d d t F.E.T.Y.^.oX|. X1 . A.!.+.. b.oX XT.T./.^ .       ! W.T.E.r . # # #         ",
"      . 9 ) X./ W.Y.d P.T.T.T.T.T.~.oX|.|.|.~.Q.{.oX|.|. XT.T./.^ . # . Y D.E.Y.$ K.W.! 9.9.. # #   ",
"      . 9 ) X.T e.T.T.T.T.T.T.T.T.T.T.T.T.T.T.Y.{.oX|. XY.T.T./.m ` -.F n D.E.Y.$ K.W.! 9.9.B [ O   ",
"      . w t =.(.7.T.T.T.T.T.T.T.T.T.T.T.T.T.T.T.W.*.. # # # # . ` >.w.:.J e 6.- Y.W.p S.H.~ S [ O   ",
"    . u G 3 O.). . .L U.T.T.T.T.T.T.T.T.T.T.T.T.W.*.. # @ ; } ] >.w.w.:.K N 2 7.7.0.0 $.e./ S [ O   ",
"    . u a ) ) q  .,.L U.T.T.T.T.T.T.T.T.T.3.I.q.F.9.. # @ ; } ] >.w.-.] K '  X. # # # # O D | P O   ",
"    . u s ) ) 3 I I T.T.T.T.T.T.T.T.T.T.1.Y.4.L.G.E . # @ ; } { { { { | J O X 2  X|.oXV.H { { P O   ",
"    . u s / 2.2.0.T.T.T.T.T.T.T.T.E.P.. . . . . . o # # # # # O P U A M b e.7.6.: + @ C Z Z Z V @   ",
"    . u s / 2.2.0.T.T.T.T.T.T.T.T.E.P.. . . . . . +.W.T.T.T.T.W.v r.;.M b D.E.T.7.0.r N Z Z Z V @   ",
"  . i d d s W 3.2.7.T.T.T.T.T.T.T.T.T.Y.: . . . *.W.T.T.T.T././.}.O.. . Y D.E.T.T.E.D.Y . # # # #   ",
"  . i d d s W 3.1.1.1.U.T.T.T.T.T.T.T.T.T.T.T.T.T.T.T.T.T.T.T./.m 5 G w . . r E.T.E.0.0.~ .         ",
"  . i d d s Q X.: 2.1.#.L.E.T.T.T.T.T.T.T.T.T.T.T.T.T.T.T.T./.c t G % +.W.T.T.T.T.0.0.T             ",
"  . i d d d d i X # X %.u . . . . . . . . . . . . . . . . . . s d . *.W.T.T.Y.6.7.0.i               ",
"    . u d d a ..W.Y.- $.4.s . . . . . . . . . . . . . . * d 1.d %.w *.W.T.I.6.6.= .                 ",
"      . . +.W.T.T.T.E.e X.d . . c.`.. . . . . . M.M.. . 8 2.1.R . q.W.E.L.$.. .                     ",
"        . &.W.T.Y.6.= . o.d . b.XX].].].].].].].]..XN.. 7 1.o %.> 9.!.*.. .                         ",
"      . 9.W.T.I.6.6.= . o.6 B..X].].`.o [.].].XXc.c.XX'.% 1.- . . . . .                             ",
"    . C.W.T.T.U.<.. . . . N..X].].].`.o [.].].XXc.c.XX'.% 1.*                                       ",
"  . A.E.T.T.T.U.<.. . . . _.b.c.XX].].].].].].].]..XN.3 %..                                         ",
". P.E.T.T.T.T.T.T.Y.: . . _.m.. v.XX].].].].].].]..XN.. . .                                         ",
". P.E.T.T.T.T.T.T.T./.v . . . . v.XX].].].].].]..XB.. . . .                                         ",
". <.U.T.T.T.T.T.T.T./.v . . . . c.`.. . . . . . M.M.. . .                                           ",
". 5.6.L.E.T.T.P.0././.v . . . . . . . . . . . . . . k j.f..                                         ",
"  . <.7.8.I.(.T.Y.6.& a.l . . . . . . . . . . . . . k h.h.s.,                                       ",
"    . . . n.}.(.K.X y.s.h.h.h.h.d.k.x.x.x.x.k.d.h.h.h.h.j.z.,                                       ",
"            . . < i.i.y.s.h.h.a.l.g.. . . . g.l.a.h.h.h.j.z.,                                       ",
"              j p.i.d.h.h.h.h.h.t.j s.. i.+ u.h.h.h.h.k.z..                                         ",
"            l p.p.h.h.h.h.h.h.h.h.h.f.. y.i.y.f.h.h.d.k.z..                                         ",
"            . . . . . . . . . . . . . . . . . . . . . . . .                                         ",
"        . 1 x z z z z z z z z z z x e . z z z z z z z z z z o                                       ",
"        . . . . . . . . . . . . . . . . . . . . . . . . . . .                                       ",
"                                                                                                    "
};
