/* XPM */
static char *_bb5bd19290c4416d8854d1337f7d1b3XIJP70MStR4RwycX[] = {
/* columns rows colors chars-per-pixel */
"50 50 250 2 ",
"   c None",
".  c #020001",
"X  c #0D0101",
"o  c #090B0B",
"O  c #180706",
"+  c #19120C",
"@  c #091916",
"#  c #1B1512",
"$  c #131914",
"%  c #1C1B19",
"&  c #171815",
"*  c #0E0D11",
"=  c #2A0201",
"-  c #2B0E01",
";  c #250A03",
":  c #3A0500",
">  c #2D1202",
",  c #28150C",
"<  c #331403",
"1  c #3C1303",
"2  c #391A07",
"3  c #241C14",
"4  c #221E18",
"5  c #2C1C13",
"6  c #351E15",
"7  c #2C221E",
"8  c #22201A",
"9  c #382419",
"0  c #1C2323",
"q  c #2D2B2B",
"w  c #292625",
"e  c #342C2A",
"r  c #362B26",
"t  c #37302D",
"y  c #313132",
"u  c #3C3C3B",
"i  c #3C3533",
"p  c #2F3030",
"a  c #431602",
"s  c #4B1501",
"d  c #451C04",
"f  c #4B1B02",
"g  c #4B1B0A",
"h  c #441709",
"j  c #521C04",
"k  c #5D1C03",
"l  c #541906",
"z  c #431E12",
"x  c #480C00",
"c  c #670500",
"v  c #651D02",
"b  c #6C1E01",
"n  c #691A05",
"m  c #701E00",
"M  c #771800",
"N  c #4D2304",
"B  c #49240A",
"V  c #542504",
"C  c #5C2404",
"Z  c #542905",
"A  c #5C2A05",
"S  c #552B0A",
"D  c #56280B",
"F  c #472918",
"G  c #542B14",
"H  c #572814",
"J  c #57331D",
"K  c #4A311E",
"L  c #632305",
"P  c #6C2303",
"I  c #642C05",
"U  c #6B2D05",
"Y  c #682A08",
"T  c #742202",
"R  c #7A2402",
"E  c #732D05",
"W  c #7C2D05",
"Q  c #742D09",
"!  c #792D0A",
"~  c #6C3105",
"^  c #653409",
"/  c #733305",
"(  c #7D3205",
")  c #7B330A",
"_  c #763808",
"`  c #692D15",
"'  c #6A3B1B",
"]  c #683A19",
"[  c #793711",
"{  c #752F15",
"}  c #4C3325",
"|  c #473426",
" . c #543423",
".. c #5C3B25",
"X. c #583928",
"o. c #413E3D",
"O. c #463A36",
"+. c #553D33",
"@. c #4D2E24",
"#. c #663B27",
"$. c #713F31",
"%. c #7E440C",
"&. c #6C4226",
"*. c #6B4329",
"=. c #73462B",
"-. c #6C4839",
";. c #764A39",
":. c #7A533A",
">. c #56413A",
",. c #3F4141",
"<. c #434342",
"1. c #4C4947",
"2. c #554C48",
"3. c #54514F",
"4. c #535353",
"5. c #5C5B5B",
"6. c #5A5654",
"7. c #7B5447",
"8. c #635D5B",
"9. c #695852",
"0. c #765E55",
"q. c #6B5049",
"w. c #6A625F",
"e. c #7C6559",
"r. c #5F6061",
"t. c #636362",
"y. c #6B6968",
"u. c #756D6A",
"i. c #797777",
"p. c #79716F",
"a. c #822601",
"s. c #842D04",
"d. c #8D2C02",
"f. c #852B06",
"g. c #833305",
"h. c #8B3405",
"j. c #833904",
"k. c #8C3904",
"l. c #843409",
"z. c #8A3409",
"x. c #823A0C",
"c. c #8C3A09",
"v. c #933503",
"b. c #9B3502",
"n. c #943A05",
"m. c #9C3B05",
"M. c #933C0A",
"N. c #9C3C09",
"B. c #93370A",
"V. c #843B1B",
"C. c #883614",
"Z. c #99380C",
"A. c #A33D04",
"S. c #A63C04",
"D. c #A13C18",
"F. c #8F3E2C",
"G. c #894508",
"H. c #9D4404",
"J. c #95440B",
"K. c #9D4209",
"L. c #9B4A0B",
"P. c #9B4907",
"I. c #9B5408",
"U. c #884616",
"Y. c #944114",
"T. c #9A4A16",
"R. c #935313",
"E. c #9C5514",
"W. c #9B5A19",
"Q. c #8E5012",
"!. c #A54206",
"~. c #AB4405",
"^. c #AE4906",
"/. c #A3430A",
"(. c #AC440A",
"). c #A34B0C",
"_. c #AB4D0C",
"`. c #A74907",
"'. c #B24403",
"]. c #B44A04",
"[. c #B74905",
"{. c #AB510C",
"}. c #A7580B",
"|. c #BD5304",
" X c #B4530B",
".X c #BB5B0A",
"XX c #B45808",
"oX c #A44D12",
"OX c #A74A17",
"+X c #A45413",
"@X c #AB5D13",
"#X c #A85A17",
"$X c #B75815",
"%X c #9E611E",
"&X c #BB690C",
"*X c #AC6115",
"=X c #AD641B",
"-X c #AE691A",
";X c #B46313",
":X c #BC6B14",
">X c #B76918",
",X c #BE721D",
"<X c #BC7013",
"1X c #AD620B",
"2X c #8F5132",
"3X c #B56E23",
"4X c #BB6F21",
"5X c #BB7222",
"6X c #B87226",
"7X c #B0672A",
"8X c #A55839",
"9X c #C25C07",
"0X c #C7640C",
"qX c #C6760B",
"wX c #C66914",
"eX c #C47513",
"rX c #C4731C",
"tX c #D47617",
"yX c #C17522",
"uX c #CB7B23",
"iX c #C46421",
"pX c #865B4B",
"aX c #865E52",
"sX c #995C48",
"dX c #8A6354",
"fX c #8C6E5D",
"gX c #89685A",
"hX c #956A57",
"jX c #8E705C",
"kX c #99735A",
"lX c #926B4A",
"zX c #A46F54",
"xX c #846E65",
"cX c #837167",
"vX c #8A7469",
"bX c #987668",
"nX c #867B77",
"mX c #937D75",
"MX c #9E7E76",
"NX c #A67B66",
"BX c #CE812C",
"VX c #A9815E",
"CX c #998379",
"ZX c #AB8464",
"AX c #A7897B",
"SX c #878786",
"DX c #959292",
"FX c #968C88",
"GX c #A28E83",
"HX c #A6948A",
/* pixels */
"                                                                                                    ",
"                                rXrX5XrX,X4X3X,X,X,XyX2X. -X3X>X,X3X                                ",
"                  3X5XyX5XW.E.;XwXwX$X$X{.oXoX{.).).oXx., U.#X#X@X#X>X:X5X6X>XR.U.                  ",
"            6XyXuXrX=X+XT.).R . a.d.d.d.d.a.R f.a.R T W 2 k T k b L L Q U.G.Z R.,XuX5X>X            ",
"        -XyX5X=XE.M.f.W R s.h.1 k f.f.f.a.R P T R E E L = C L E.&X<X-XG.l s X _ %.R.-X4XyX=X        ",
"      6XBX6X3X/ M l.l.! ! W T g j h.g.c.c.c.c.x.) ) ) / S D N I.1X&X;X_ . 1 < d f a U.W.%X3X        ",
"      #X3X6X5XW.x.T T T j.J.L.).+X}.@X@X;X;X&X;X;X@X}.R.U.[ D = : c c = < O . O B U.-X5X3XwX0X      ",
"      G.}.W.U.=XW.Q.R.R.R.+X}.;X:X:X:X:X:XeXeX<XqXqXqXqX&X1XI.G.~ A I _ [ _ %.R.#XrXrXwX+X9X9X      ",
"      G.I.%.+ @X}.*X>X=X=X*XW.#X>XrXeXeXeX>X:X<X<X<XeXeXqXqXeX<X*XE.E.=X@X>XE.*XtX0X0X.X_. X|.      ",
"      / G.^ S }.`.I.I.L.&XwX;X;X@X#X>X>XW.E.;X:X>X;X;X*X*X;X;X@X#X$X;X:X0XtXQ.%.wX.X9X X_.^.$X      ",
"    0./ U.Z S P.G.G.G.G.{.XXXXXX}.L.@X*XH T..X X.XXX.XXX{._.).T.).{.oX.X9XwXE._ 0X|.|.].^.OX|.7X    ",
"  DXaXc U.K ] J.j.j.( j.P.`.).).J.J.+X}.A E._._.{.{. X{._.).L.J./._._. X|.0X+XI 0X|.$X$XOX^.'.AX    ",
"  DXnX7.k.= _ T.V.U.[ x.J.!.H.H.M.M.L.).j J.H.K.~.~.^.~.K.M.M.M.m.'.^.[.|.wX#XH iX$X|.].'.(.bXDXFX  ",
"  SXDXFXvXO._ k.d.s.E x.U.T.T.T.Y.Y.T.oXD T.Y.Y.).oXOXOXY.Y.Y.U.T.OXOX$X$X0X.Xx 9X[.].8XhXMXDXCX9.  ",
"  t.p.SXFXSXnXxXdX:.' g.d.b.v.m.h.h.H.H.j J.k.n.m.!.m.m.k.k.k.g.b.S.S.S.[.|.$X@.zXNXAXGXGXCXvXq.}   ",
"6.5.5.t.t.u.i.i.SXSXnXcXgXdXdXsXpX2X2XT.N G.( g.k.M.M.C.V.V.V.=.2XsXhXbXNXAXAXGXHXHXGXvXe.-...} +.  ",
"  t.5.6.u u <.3.5.y.i.i.i.i.i.nXnXnXnXnXp.vXvXvXmXmXmXmXmXCXCXCXAXAXAXAXAXCXCXbXvX0.-...G J ..+.O.  ",
"    r.6.o.,.u u o.o.<.O.o.<.1.3.6.5.t.t.u.cXcXcXcXcXcXcXcXxXxXvXjXdXpX7.:.=.&.&.' J J ..#.#.X.X.    ",
"    2.6.<.<.u o.o.o.u e w w 7 7 7 7 7 r r  . . . . . . . . . .J ' ] ] ] ' #.&.&.*.#.#.X.| 9 ` N.    ",
"    V  .O.u u ,.<.,.u t r e e e e e e e e } }  . . . . . .X.X...&.&.&.=.=.=.&.&.*.| 9 H ) l.~.'.    ",
"    A C f < H @.O.o.u w 0 w w q e e e e t X.X.X.X.X.X.X.X.X.X.#.*..... .K F 9 9 B ! m.'.(.m.'.(.    ",
"    ^ ~ V 2 U V V V F G H F 9 5 4 % % @ 0 8 8 8 8 % 4 4 4 4 3 9 F H g h v P z.a W '.~.[.~.B.(.^.    ",
"    I ~ Z 2 _ I U I A / z.k.( E E U U U j ) E W W h.s.s.h.h.g.v.v.S.g.Y h.h./.V z.^./.[.!.N.!.(.    ",
"    I ~ Z B j.E E / I ) z.k.l.g.g.g.z.k.P /.m.m.m.!.A.A.S.!.m.A.N.!.l.U z.z.N.f l.^.!.].~.N.!.(.    ",
"    I / S S ( E U ~ U / g.k.g.( g.( c.) C K.n.n.m.!.m.A.A.!.B.N.N.~.l.Q l.l.M.f l.^./.'.!.Z.A.~.    ",
"    I _ Z S j.U U U ~ / g.n.z.( g.g.c.) C K.n.n.m.!.m.A.!.A.M./.(.~.c.l.l.l.M.V ( (.!.(./.z.N.!.    ",
"    A _ Z S j.E U U ~ / k.n.k.( j.( c.) C K.n.n.m.A.m.m.A.N.c.!.(.~.c.c.l.( M.C E (.!.!.N.z.m.m.    ",
"    Z / Z A j.E U U ~ / k.n.z.) j.( c.) C K.m.n.m.A.m.m.m.N.c.~./.!.c.M.c.W J.I Y /.A./.B.( k.n.    ",
"    S I N S ) E U U ~ / k.n.z.E ( ( c.) j K.A.m.m.m.m.m.m.M.z.!./.K.M.K.M.( M.I L A.m.m.g.Q k.v.    ",
"    S I V B / U I I I ~ k.n.c.( ( ( c.( f /.!.A.A.m.m.m.m.M.c.!.N.M.M.!.N.s.M.Y L N.m.n.( U h.C.    ",
"    N A V 2 ~ I C A A I g.n.n.( ( ( c.( f _.~.!.!.A.m.m.N.M.c.!.M.l.c.m.m.s.M.A P N.m.v.Q P l.      ",
"    +.N Z < U I Z Z A A W v.k.g.( E l.E f ).!.!.S.A.A.m.m.M.v.m.l.) l.m.n.h.M.V E m.b.k.E Y l.      ",
"    9.x G > I C V Z A A W v.k.g.g.W z.) a /.A.A.A.A.A.b.m.n.m.m.l.Q g.n.m.v.M.f s.m.n.h.E ` a.7.    ",
"    y.: V 5 A V N V Z Z W v.h.g.g.g.z.( a /.A.A.A.A.A.n.A.m.A.A.l.Y s.v.m.v.M.d h.b.b.C.{ M ;.p.    ",
"  y.i.8.B = D H B N V V W v.h.( g.W z.( f /.A.A.A.A.A.A.S.A.A.S.h.Y W h.b.b.n.a B.D.N.s.M #.p.e.    ",
"    t.p.t.r x s f N G G Q k.g.W ( W z.( f /.A.A.A.A.A.A.A.A.A.~.v.L W z.Z.N.C.z v.A.b.V.;.u.e.+.    ",
"    5.5.u.t.2.+.F s s f U k.l.{ x.{ C.[ g /.A.N.N.N.N.N.S././.(.D.` { l.b.b.a.: b.2XpXgXvXhX-.w     ",
"    6.t.6.5.t.t.5.2.>.K P d.a.R R T h.g.f /.A.n.m.b.b.b.S.A.A.'.A.m M M d.C.#.O.aXfXjXdX:.#.r       ",
"      6.6.u <.4.6.r.t.8.9.7.q.-.$.#.V.x.d A.b.d.b.b.b.d.b.b.b.D.F.-.q.aXhXkXNXZXbXdX;.J 5 * #       ",
"        4.u q y u <.3.5.8.8.w.w.w.w.0.0.9.aXaXaXaXaXdXdXdXdXfXkXNXZXZXZXVXNXkXlX=.F , o # 9         ",
"        i i y p y y y e e i o.<.1.3.6.6.8.gXfXfXfXfXfXjXjXjXjXkXzXlX2X=...F < O O o & 6 z           ",
"          < 7 w y y y q o o X O + # 3 7 q } } } } } } | F F F F 2 O . . . X + # % z l k l           ",
"          - ; ; 5 7 q q % % % & & & * * o X X X . . . X X X X O O , 3 3 3 3 5 z v m m v s           ",
"          d > O < - - , , # # & $ % % & % $ @ $ $ $ $ @ @ $ @ $ 5 5 2 g l k ; P T T b k 1           ",
"            d ; > > > > > < < < < ; ; 5 + 2 g h h h h l l g l T v k b T T P : R T b b f             ",
"              < 2 < > > > 1 a a a 1 a C - C W m b b T a.a.T a.d.T b P T R k 1 R b b k               ",
"                B d d 1 < 1 1 a a a s L < j T b v T T R a.R a.a.T v P b R s s R v                   ",
"                    d d f f a a a a a C < d P k k b T T T T a.a.T v m T R 1 s                       ",
"                          f a a a d f C < a P k k b T T T T a.R b v v v                             ",
"                                        - < C s j k v b b b T                                       "
};
