/* XPM */
static char *d07c693f18af4105e65abb520958088bst3qW9hCrSOgyVdC[] = {
/* columns rows colors chars-per-pixel */
"50 50 224 2 ",
"   c None",
".  c #B5302F",
"X  c #AE3C30",
"o  c #BB442F",
"O  c #BE4A2F",
"+  c #B54230",
"@  c #B84430",
"#  c #BE4930",
"$  c #D4541A",
"%  c #F85B00",
"&  c #F15000",
"*  c #EF6700",
"=  c #F46600",
"-  c #F86400",
";  c #F66B01",
":  c #F86A00",
">  c #F67004",
",  c #FB7E00",
"<  c #FA7500",
"1  c #E2601D",
"2  c #F66D1E",
"3  c #F76E14",
"4  c #ED7E1F",
"5  c #F6701D",
"6  c #FB751F",
"7  c #C64E2E",
"8  c #CD5429",
"9  c #D3552A",
"0  c #D45B2B",
"q  c #DF5E23",
"w  c #C44C30",
"e  c #CB4F32",
"r  c #CF5133",
"t  c #D15233",
"y  c #E45E2D",
"u  c #DA6E30",
"i  c #EC6C24",
"p  c #E8612B",
"a  c #E26828",
"s  c #F56E26",
"d  c #F67321",
"f  c #F97521",
"g  c #F77827",
"h  c #FE7A22",
"j  c #FA782C",
"k  c #F67D34",
"l  c #F67B38",
"z  c #FD8300",
"x  c #FF9805",
"c  c #FC8F1E",
"v  c #FFA600",
"b  c #FFA900",
"n  c #FFA40F",
"m  c #FFAE08",
"M  c #FFA315",
"N  c #FEA31C",
"B  c #FFAD1E",
"V  c #FFB012",
"C  c #F98624",
"Z  c #FC8B26",
"A  c #FA8A28",
"S  c #F58429",
"D  c #FE9D2E",
"F  c #FF9727",
"G  c #E58A36",
"H  c #E98537",
"J  c #F7813E",
"K  c #FA9834",
"L  c #ED882C",
"P  c #FEA424",
"I  c #FFAD22",
"U  c #FEA52C",
"Y  c #FEAA2E",
"T  c #FFB125",
"R  c #FFB12C",
"E  c #FFB92C",
"W  c #FFBB27",
"Q  c #FDA631",
"!  c #FEAE34",
"~  c #FEAF3A",
"^  c #FFA53F",
"/  c #FFB235",
"(  c #FFBA34",
")  c #FEB33A",
"_  c #FFBB3D",
"`  c #FFCE28",
"'  c #FFC236",
"]  c #FFCD3F",
"[  c #FFC23D",
"{  c #FFDC3C",
"}  c #FA8441",
"|  c #FF8942",
" . c #F58144",
".. c #FC9645",
"X. c #F69157",
"o. c #F48C54",
"O. c #FCAE42",
"+. c #FFA042",
"@. c #FFBE42",
"#. c #FDB54B",
"$. c #FFAB5F",
"%. c #FEBD5D",
"&. c #FCB858",
"*. c #F79867",
"=. c #FF9E74",
"-. c #F68C63",
";. c #F9B562",
":. c #F9BB6A",
">. c #F7A173",
",. c #F7BC73",
"<. c #FEC345",
"1. c #FFCE43",
"2. c #FEC749",
"3. c #FECD4E",
"4. c #FFDE45",
"5. c #FFDD4A",
"6. c #FFD747",
"7. c #FECE50",
"8. c #FDC25C",
"9. c #FED352",
"0. c #FED956",
"q. c #FEDD59",
"w. c #FFE44D",
"e. c #FFE245",
"r. c #FFE554",
"t. c #FFED56",
"y. c #FEE35E",
"u. c #FFED5F",
"i. c #FFDF62",
"p. c #FBC274",
"a. c #FECC7C",
"s. c #FDC678",
"d. c #FFDE7D",
"f. c #FDCE64",
"g. c #FEE660",
"h. c #FEEC64",
"j. c #FEE96D",
"k. c #FCE97C",
"l. c #FEF067",
"z. c #EFB789",
"x. c #EFB78A",
"c. c #F1B385",
"v. c #FDBA89",
"b. c #F8B686",
"n. c #EFBF92",
"m. c #FFB092",
"M. c #FFCD84",
"N. c #FFCC89",
"B. c #F6C589",
"V. c #FAD383",
"C. c #FADA8B",
"Z. c #EECB95",
"A. c #EECE9C",
"S. c #EEC293",
"D. c #F7C294",
"F. c #F6C798",
"G. c #FFDF9B",
"H. c #FBD49D",
"J. c #FCE58F",
"K. c #FAEB89",
"L. c #FBEB84",
"P. c #F8E594",
"I. c #F8EB99",
"U. c #F7E19E",
"Y. c #E8CAA6",
"T. c #F3C6A6",
"R. c #EBD3A4",
"E. c #EAD4AB",
"W. c #EAD8AE",
"Q. c #FDDCAC",
"!. c #EDCAB6",
"~. c #EECCB8",
"^. c #F3CDB2",
"/. c #EAD7B2",
"(. c #EADBB2",
"). c #EADABA",
"_. c #E6DAB7",
"`. c #F4DFB4",
"'. c #F6D3BE",
"]. c #FBE1AE",
"[. c #E8E1B8",
"{. c #F3E2B6",
"}. c #F8E1B5",
"|. c #F4E3BA",
" X c #FAEDB9",
".X c #B4CDE7",
"XX c #BBCBE0",
"oX c #C5CEDD",
"OX c #EBDCC2",
"+X c #E9DECB",
"@X c #EDD1CB",
"#X c #F2D3C4",
"$X c #F4D3CB",
"%X c #FDDDC6",
"&X c #E8DED9",
"*X c #EDE4CD",
"=X c #EEEBCF",
"-X c #ECE0C4",
";X c #F6E8C4",
":X c #ECE3D4",
">X c #EEEAD3",
",X c #E9E3DC",
"<X c #E7E1D7",
"1X c #F9ECD3",
"2X c #F9EDDA",
"3X c #F3E9D6",
"4X c #FBF2DA",
"5X c #FFF3C9",
"6X c #C6D4E5",
"7X c #C8D1E0",
"8X c #D4DAE5",
"9X c #DFE0E3",
"0X c #E6E5E6",
"qX c #E9E5E3",
"wX c #EEEAE6",
"eX c #E7E6EC",
"rX c #E8E7EA",
"tX c #EAEBE8",
"yX c #F2EBE3",
"uX c #F6EFE5",
"iX c #F9F3EB",
"pX c #FAF4E9",
"aX c #FAF5F2",
"sX c #FEF9F4",
/* pixels */
"                                                                                                    ",
"                                                                                                    ",
"                                    .X.X.X.X.X6X0X0X7XXX8XrXwXqXqXqXqXqXqXqXqXqXqXqXqXqXqX          ",
"                                  oX7X8XoXoXoX8XqXqX8X7X9XyXyXwXwXwXwXwXwXwXwXwXwXwXwXsXuXqX        ",
"                                E.Y.~.'.~.!.!.#X1X2X<X&X3X2X2X2XuXaXiX2X2XiXaXaXiXuX2XsXaX<X/.      ",
"                              (.R.B.#.O.#.O.O.,.R.(.W.W.W.W.E.W.+XqX:X/.).<XqXqX,XOXW.+XqX:X/.R.    ",
"                              _. XV.b b b b b &.Z.W.E.E.R.R.R.R.+XqX<XW./.<XrXrX,X).R.+XqXpX5XR.    ",
"                              _.}.N.R m R B m :.R._.(.W.W.W.E.W.+X0X<X/.).,XeXeXqXOXW.+X0XyX;XR.    ",
"                              R.H.p.U M Q P N $.S.R.A.A.A.A.Z.A.).*XOXA.R.-X>X>X*XW.A.).*X;XQ.Z.    ",
"                              %.%.^ , , C C C ..;.:.:.:.:.:.;.:.V.P.C.:.p.C.I.I.P.a.:.V.P.J.s.;.    ",
"                              #.) +.l l d 2 s C N B B B B B M B ] r.6.T E 5.t.t.w.' B ] r.4.W n     ",
"              b :.R.W.R.R.R.A.B.B.B.c.*.j : 2 C P I I I I I N I ] r.6.T E 5.t.t.w.' I 1.r.5.W M     ",
"              Y a.R./.E.E.E.E.E.E.W.E.c.k - 5 A Q / ! ! ! ! Y ! 3.g.0.) _ q.h.h.y.<.! 3.g.0._ U     ",
"            ;.s.G.].;X1X4X4X1X-X(.[.(.z.k - 5 A Q / ! ! ! ! Y ! 3.g.0.) _ q.h.h.y.<.! 3.g.y._ U     ",
"        b ~ s.R.R.R.).,XtXtX,XOXW.(.W.c.k - 5 A Q / ! ! ! ! Y ! 3.g.0.) _ q.h.h.y.<.! 3.g.y._ U     ",
"        v [ C.W._.).OX$X$X$X#XT.n.S.n.>.k : 5 A Q / ! ! ! ! Y ! 3.g.0.) _ q.h.u.r.<.! 7.g.y._ U     ",
"        b ) M.R.-X,X#Xm.*.>.=.-.o.X.X.} g 5 d A Q / ! ! ! ! Y ! 3.g.0.) _ q.h.t.e.' ! 7.g.y._ U     ",
"        b ) a.R.*XtX@X-.& % - < < ; = ; d d d A Q / ! ! ! ! Y ! 3.g.0.) _ 0.j.k.k.8.! 3.y.0._ U     ",
"        b ) a.R.>XiX&X        x F 4 $ 1 d f d A Q / ! Y ! ! Y ! 3.g.0.) _ 5.k. X|.B.Y ` w.4._ Q     ",
"        b ) a.R.3XiXrX        ( / G o 9 d f d A Q / ) ) / ! Y ! 3.g.0.) ( { K.>XqXF.I 1.j.i._ P     ",
"        b ) M.R.;X1X*X        ( / G + 9 d f d C U _ 3.9.@.! U ! 3.g.0.) ( { K.>XqXF.Y M.{.G.#.v     ",
"        b ) M.E.{.}.W.        / / G O 9 d f d C D @.q.y.2.! U ! 3.g.0.) ( { K.=X,XD.! T.,X%X%.v     ",
"        b ) M.E.{.].R.        / / K 0 a d f d C U _ 9.0.<.! U ! 3.g.0.) ( { K.=X,XD.~ ^.eX%X%.v     ",
"        b ) M.E.{.}.E.        / / D d s d d d A Q / ) ) ) ! Y ! 3.g.0.) ( { K.=X,XD.~ ^.qX%X%.v     ",
"        b ) M.E.{.}.E.        / / D h f d d d A Q / ! Y ! ! Y ! 3.g.0.) ( { K.>X,XD./ F.*XQ.&.v     ",
"        b ) M.E.{.}.E.        / / D f d d d d A Q / ! ! ! ! Y ! 3.g.0.) ( { K.>XqXT.I f.J.d.@.n     ",
"        b ) M.E.{.}.E.        / / D d d d d d A Q / ! ! ! ! Y ! 3.g.0.) ( 4.L.;X:XD.T ` w.e._ U     ",
"        b ) M.E.{.}.E.        / / D d d d d d A Q / ! ! ! ! Y ! 3.g.0.) _ 0.j.I.U.p.R ] r.w._ U     ",
"        b ) M.E.{.}.E.        / / D d d d d d A Q / ! ! ! ! Y ! 3.g.0.) _ q.h.h.r.<.! 7.g.q._ U     ",
"        b ) M.E.{.}.E.        / / D d d d d d A Q / / ! ! ! U ! 3.g.0.) _ q.h.t.e.[ ! 7.g.q._ U     ",
"        v ) M.E.{.}.E.        / / D d d d d d A Q / / ! ! ! Y ! 3.g.0.) _ q.h.h.y.<.! 3.g.q._ U     ",
"        v ) M.E.}.}.E.        T R N > 3 d d d A Q / ! / @.2.) ! 3.g.0.) _ q.h.h.y.<.! 3.g.q._ U     ",
"        b ) M.E.{.}.E.        b V x : : d d d A Q / Y ) 0.y.2.! 2.g.0.) _ q.h.h.y.<.! 3.g.q._ U     ",
"        b ) M.E.`.`.E.        :.%.$.X. .g 5 d A Q / Y ) 9.y.2.! 2.g.0.) _ q.h.h.y.<.! 3.g.q._ U     ",
"        b ) M.E.(.W.E.E.E.W.R.A.Z.A.n.>.k : 5 A Q / Y ! @.<.) ! 3.g.0.) @.q.h.h.y.<.! 3.g.q._ U     ",
"        v ~ M.E.(.E.W.`.}.}.`.(.W.(.W.c.k - 5 A Q / ) ) ! ! U ! 3.g.0.) @.q.h.h.y.<.! 3.g.q._ U     ",
"        z D N.W.(.(.(.{.|.|.}.(.(.[.(.z.k - 5 C U _ 9.9.@.Y U ! 3.g.0.) _ q.h.h.y.<./ 3.g.y._ U     ",
"        - j b.R.(.E.E.E.E.E.E.E.E.W.E.c.k - 5 C D @.q.y.2.! U ! 3.g.0.) _ q.h.h.y.<./ 3.g.y._ U     ",
"          s *.b.D.v.v.v.v.v.v.c.c.z.c.*.j ; 5 C U _ 3.9.@.! U ! 3.g.0.) _ q.h.h.y.<.! 7.g.y._ U     ",
"            J } ..| | | | | | } J } J k d 5 d A Q / ) ) / ! Y ! 3.g.0.) _ q.h.l.y.<.! 7.g.y._ U     ",
"              - - - - - - % : , z > * * f f f A Q / ! Y ! / ! ! 2.0.3.) ) 9.q.q.0.@./ 2.0.9._ Y     ",
"                              Y Y L 8 q f 6 6 A ! / / / / / / / _ @._ / ) _ <.<.@.) / _ @.<._ /     ",
"                              ! ! G @ 9 i s i S D ! ! Q Q Q Q Q U U U Q Q U U U U Q Q U U ! / Q     ",
"                              u H u o 7 0 0 9 a S F Z Z Z Z Z Z Z Z Z Z Z Z Z Z Z Z Z Z C F D A     ",
"                              o o w O # # @ + 8 i f d d d d d d d d d d d d d d d d d d d h d d     ",
"                                . o e t w w w t y p p p p p p p p p p p p p p p p y p j h 6 2       ",
"                                  # w r w w w w w w w w w w w w w w w w w w w w w # 7 s h h         ",
"                                    O O O O O o + + + + + + + + + + + + + + + + + X @ q d           ",
"                                                                                                    ",
"                                                                                                    "
};
