/* XPM */
static char *eb57ff03e1834d0fa06a5817e64211b4xIuQMnSiOyKd4UJ3[] = {
/* columns rows colors chars-per-pixel */
"50 50 114 2 ",
"   c #000001",
".  c #00000B",
"X  c #09010C",
"o  c #010313",
"O  c #020C15",
"+  c #0B0D19",
"@  c #0C131B",
"#  c #1C1314",
"$  c #151319",
"%  c #1C151A",
"&  c #16191D",
"*  c #1B1A1D",
"=  c #25160F",
"-  c #231C1D",
";  c #26221E",
":  c #2C231C",
">  c #33261F",
",  c #33281F",
"<  c #3A2A1F",
"1  c #1E1E21",
"2  c #231E22",
"3  c #2C1F20",
"4  c #1F2022",
"5  c #222223",
"6  c #2B2525",
"7  c #2E2B24",
"8  c #2E2629",
"9  c #2C2A2A",
"0  c #312622",
"q  c #342B26",
"w  c #382D26",
"e  c #302729",
"r  c #342C2A",
"t  c #392F28",
"y  c #353126",
"u  c #3E3127",
"i  c #35322C",
"p  c #3C332C",
"a  c #3C382F",
"s  c #352F31",
"d  c #363332",
"f  c #3A3432",
"g  c #3D3934",
"h  c #3E3B38",
"j  c #413125",
"k  c #41362D",
"l  c #45392E",
"z  c #4A3B2D",
"x  c #413631",
"c  c #443B33",
"v  c #4A3D33",
"b  c #433E3A",
"n  c #493F38",
"m  c #464135",
"M  c #4E4134",
"N  c #46413B",
"B  c #4B443B",
"V  c #4E493C",
"C  c #524437",
"Z  c #544638",
"A  c #554A3B",
"S  c #5A4C3D",
"D  c #5A513F",
"F  c #4E4742",
"G  c #4F4942",
"H  c #534C43",
"J  c #5A4E41",
"K  c #554E49",
"L  c #575043",
"P  c #5C5343",
"I  c #575149",
"U  c #5B544C",
"Y  c #5F594F",
"T  c #5F5950",
"R  c #615545",
"E  c #625846",
"W  c #625648",
"Q  c #635A4B",
"!  c #645A48",
"~  c #665D4B",
"^  c #675E4B",
"/  c #64594D",
"(  c #685E4D",
")  c #685F4E",
"_  c #605951",
"`  c #645C53",
"'  c #625B54",
"]  c #675F54",
"[  c #685E53",
"{  c #6A614E",
"}  c #676055",
"|  c #6B6150",
" . c #6C6352",
".. c #6C6453",
"X. c #6B6255",
"o. c #696157",
"O. c #676059",
"+. c #6A6259",
"@. c #6D655A",
"#. c #6F685C",
"$. c #706756",
"%. c #706759",
"&. c #70675C",
"*. c #716859",
"=. c #72695E",
"-. c #746B5C",
";. c #746C5F",
":. c #746C60",
">. c #766E62",
",. c #786F63",
"<. c #786F64",
"1. c #797062",
"2. c #7B7165",
"3. c #7C7366",
/* pixels */
"C C J %.%.>.,.b E *.>.>...E M Z ~ ~ =.2.N &.,.;.~ ~ C L ) C M ! ~ { } q Z C C @...>.2.H A ..>.>.@.~ ",
"1 & & & * 4 5 1 1 5 5 5 5 1 * 5 5 5 5 * 5 4 1 4 5 5 5 5 & 4 5 5 5 4 4 5 4 & & & & 4 5 1 1 5 5 5 5 4 ",
"o.. q x o.2.,.P | ,.>.>.2.] H 3.>.>.-.~ ~ ~ ~ ) >.>.>.2.N =.>.>.>. .{ ,.-.1 - l Y 2.2./ E ,.>.>.>.,.",
"o.o v U 2.E v C C x * $ 6 _ U H 8 d s d d 2 - - * - + B B o.k s i d d q o.4 k H 2.| C C C v 5 - . o.",
"} * =.-.A C Z C C Z Z M d Y U H M Z Z C C Z Z Z Z S ] U H [ C Z Z C Z C o.5 ] 1.D M Z C C C Z Z 5 ] ",
"A V S v Z C C C C C C Z p A U W v Z C C C C C C C Z A U H [ C Z C C C C L m P z Z C C C C C C Z p L ",
"p B S C C C C C C C C C x _ I W v Z C C C C C C C Z k U H [ C Z C C C Z v x P C Z C C C C C C A w o.",
"v p Z C C C C C C C C C x Y m B M C C C C C C C C Z v H B o.C Z C C C C C t Z C C C C C C C C A t ] ",
"L V P C C C C C C C C C n L p p M C C C C C C C C C v H B ] v Z C C C C P m R M C C C C C C C Z x U ",
"A V J C C C C C C C Z Z n ' V H C Z C Z C C C C C C M R B A p A C C Z C L N R M Z C C C C C C A k +.",
"L Y W z C C C C C C v z p Y U N u l v v v C C C M C z ] H T 0 M v v v Z Q H | z C C C C C C v v > ] ",
"U G -.P S S S S S S F b / ] I H i b J F L S Z Z S P S %.H o.N H N b V *.#.g -.R S S S S S S H b H ;.",
"    T ] D P P P P L o.@.@.I y E ~ =.@.+.@.H p v L ] / #.d ] @.#.Y A #.@.5   G @.L L P P P L ] @.+.] ",
"N B g d h d % + d f f f f g N i o   7 g O f N f i ; % # p f d 7 i p   & N B b d g g 2 o 9 f g f f g ",
"=.&.=.;.>.%.Z g %.o.>.=.=.=.=.~ r r Q 1.G *.=.~ E A M v P ;.>.| Q ~ M Y 2.@.=.;.;.-.S u o.o.=.=.=.=.",
"2 q q z z z C p L 2 q q q q q q 7 n 6 m B A % i % r f 6 r z z v e * L U N - q l z z Z t L r e q q q ",
"i A Z Z Z Z C g +.v A A A A A C t A C R B O.v A A Z Z A Z Z Z Z A n _ U H C A Z Z Z Z w } Z A A A A ",
"c C C C C C C f o.v Z C C C C M i Z v P N / v Z C C C C C C C C C B T U U v Z C C C A w ] Z C C C C ",
"g Z C C C M M b ] k Z C C C C M c Z M R m W Z C C C C C C C C C C n _ H H v Z C C C C p ` b C C C C ",
"v C C C Z k H H _ x Z C C C C C v Z M P N +.v Z C C C C C C C C C n ` B A M C C Z v N H _ n C C C C ",
"Z C C C Z k U H _ v Z C C C C C Z Z v ! B U x Z C C C C C C C C C n U n S C C C Z z H U _ B C C C C ",
"C C Z Z A l U H o.C Z Z Z C C C C Z C ) b l B v A Z Z Z C C Z Z A c U w Z C Z Z A v G I ] S C Z Z C ",
"C C x x x 3 I H H l C v v M C C C Z q J b 9 U c j z z z C M c k p q ] t Z C x g x q N U H v v v v v ",
"Z P L H L H >.B j A ! ) ) R Z A Z Z Y >.H   U L ` o.o.o.J Z v L / Z +.p A S P H L H =.Y < Z ! ! [ R ",
"t b A V V A U 9 t n m V B m w : % * I U 9 . i x H I U T n 0 : m H k N 5 u p V V V V Y f 6 v m B V m ",
"p u t t t t , p t c U U U i g T T L m p p x u B U A -   O V T U H V u p p p t t t t , p u p L U U B ",
"v x p k k p c n Z A _ _ ] / U @.U H L L c v v V _ L P F * | T Y U V B v v c p k k p x n Z A / _ Y *.",
"c k u p p u x c C v p w - T U c = q x v c c c t q 0 J ] * L - , 0 t x c c x u p p u p c C M p k   ] ",
"Z Z Z Z Z Z Z Z C Z Z A c T U F C A Z C Z Z Z A A C N U 6 L v S A A Z Z Z Z Z Z Z Z Z Z C C Z S p o.",
"C C C C C C C C C C C C p L H V v C C C C C C C C M A H 1 P v C C C C C C C C C C C C C C C C Z t U ",
"C C C C C C C C C C C Z p A V V M C C C C C C C C C Z P f E C C C C C C C C C C C C C C C C C Z t L ",
"C C C C C C C C C C C C c A x A C C C C C C C C C Z v R m B v Z C C C C C C C C C C C C C C C Z x L ",
"C C C C C C C C C C C Z x Y q M C C C C C C C C C Z v A c p n C C C C C C C C C C C C C C C C Z p ` ",
"A A Z A A A A A A A A Z f ` v n C A A A A A Z C Z S l V B B x S Z Z Z A A A A Z A A A A A A A S 8 o.",
"- - r q - - - - # # # X $ Y L c 8 8 - - - w M Z r - 8 x b U   - x c r - - - q r - - - - # # # #   ] ",
"Q Q ! Q E E E Q @.@.@.@.>.o.Y $.Q Q Q Q P =.) C J Q Q ) b ,.] o.) J Z Q Q Q Q ! E E E P o.#.@.#.@.2.",
"q q 7 7 i i i g N h h h b 9 & i 7 7 7 7 a B i X - q 7 q @ d g h q # ; p 7 q 7 7 i i i g N b g h h f ",
"@.+.@.| P Q A * p A P P L / ] P @.@.@.@.d   C @.@.@.#.] P E A l / =.U b #.+.@.+.P E P 5 w C P P P P ",
"R R P N p i M u x i g p n J P V F H N @.B B -.H F F H H b N q t H K ] U o.J W F p i v k l i f p g S ",
"M M M v v k r i A q v x v M C v v v 2 V N @.! v v v v v v v v v M x H V S z M v v x d 9 A t v x v M ",
"C C C Z Z C s r L p A Z Z C C C C Z l B B ] x Z Z Z Z C C Z Z Z Z n A B P C Z Z Z Z f 5 L p A Z Z C ",
"C C C C C v c p L x Z C C C C C C Z l B V _ u A C C C C C C C C C n H B P M C C C C c u L c C C C C ",
"C C Z C Z v x u P C C C C C C C C Z v p x H p Z C C C C C C C C C Z v p A C C C C C c t L Z C C C C ",
"C C C C C M P b P C C C C C C C C Z v p p H p Z C C C C C C C C C v x u Z C C C C M J B L A C C C C ",
"c C C C C M R g M C C C C C C C C Z v p p x p Z C C C C C C C C C c x p v C C C C M P B x Z C C C C ",
"x Z C C C M R g v Z C C C C C C C C v c u p p Z C C C C C C C C Z i k p c C C C C M P B k Z C C C C ",
"c C C C C M R c x v Z C C C C C C C M c p L x Z C C C C C C C C Z u k p n C C C C M P B k v C C C C ",
"t Z C C Z M R m H c Z C C C C C C Z x B m P C C C C C C C C C Z M 9 k p u C C C C M P B A v Z C C C ",
"d d d x Z v P B _ 2 f d d x C C Z i 2 Y H ] C g 1 2 2 2 2 * r d * 6 H u c d d g C M P B _ r d d d d ",
"C C J *.%.>.2.N E *.>.>...E C Z ) ~ -.3.N =.,.>.~ ) C P ) C C ! ~ { o.w Z C C @...>.3.H A $.>.>.%.~ "
};
