/* XPM */
static char *_ac17c23a7fe4ef6805e5a7259a82869ri0KTsUOlcjM4NUN[] = {
/* columns rows colors chars-per-pixel */
"50 50 154 2 ",
"   c None",
".  c #000000",
"X  c #090603",
"o  c #0D0904",
"O  c #0C0C0C",
"+  c #130C06",
"@  c #190E05",
"#  c #120E0A",
"$  c #1A1107",
"%  c #15110C",
"&  c #1D140A",
"*  c #0A0F12",
"=  c #131313",
"-  c #181513",
";  c #1A1817",
":  c #17191A",
">  c #1C1C1C",
",  c #231306",
"<  c #2A1400",
"1  c #2B1A05",
"2  c #23160A",
"3  c #28170A",
"4  c #25190C",
"5  c #2C1D0D",
"6  c #311D05",
"7  c #301E0D",
"8  c #261C14",
"9  c #2A1E12",
"0  c #231D1A",
"q  c #2E200F",
"w  c #3B2305",
"e  c #34220E",
"r  c #38230F",
"t  c #2E2113",
"y  c #23201D",
"u  c #2B231B",
"i  c #332412",
"p  c #3B2611",
"a  c #3B2A15",
"s  c #312419",
"d  c #34281B",
"f  c #3B2C1A",
"g  c #1E2020",
"h  c #242423",
"j  c #282725",
"k  c #2C2927",
"l  c #2C2C2B",
"z  c #312B25",
"x  c #312B26",
"c  c #392F27",
"v  c #342F2C",
"b  c #32312F",
"n  c #37322F",
"m  c #333434",
"M  c #383735",
"N  c #3A3735",
"B  c #383736",
"V  c #393837",
"C  c #343738",
"Z  c #393A3A",
"A  c #3B3B3B",
"S  c #4A2600",
"D  c #4E2C00",
"F  c #40280B",
"G  c #472C0F",
"H  c #482E09",
"J  c #532F00",
"K  c #4F3304",
"L  c #5A3A05",
"P  c #432D14",
"I  c #452E15",
"U  c #432D15",
"Y  c #482E14",
"T  c #432F19",
"R  c #463017",
"E  c #493117",
"W  c #493116",
"Q  c #45311A",
"!  c #4A3218",
"~  c #4B331B",
"^  c #4F3319",
"/  c #4D361B",
"(  c #4C351B",
")  c #4F391F",
"_  c #4E391F",
"`  c #523416",
"'  c #573A12",
"]  c #5C3917",
"[  c #56371A",
"{  c #523619",
"}  c #51391E",
"|  c #523B1F",
" . c #563A1F",
".. c #563C1E",
"X. c #52391D",
"o. c #593A1B",
"O. c #593E1F",
"+. c #5B3C1C",
"@. c #613E19",
"#. c #623F1D",
"$. c #603F1E",
"%. c #443526",
"&. c #483321",
"*. c #4E3B21",
"=. c #533D21",
"-. c #5E3F24",
";. c #403731",
":. c #423A34",
">. c #5E401F",
",. c #654519",
"<. c #6D461A",
"1. c #67491A",
"2. c #564022",
"3. c #5D4121",
"4. c #5E432F",
"5. c #5F4C3C",
"6. c #654622",
"7. c #664825",
"8. c #664926",
"9. c #694C27",
"0. c #6B4C26",
"q. c #6C4C27",
"w. c #6B4A26",
"e. c #61432A",
"r. c #674B28",
"t. c #6A4D28",
"y. c #6B4E29",
"u. c #744D24",
"i. c #73542D",
"p. c #7C582E",
"a. c #654F3D",
"s. c #725530",
"d. c #434343",
"f. c #4C4845",
"g. c #494B4D",
"h. c #4C4C4C",
"j. c #554A41",
"k. c #564C42",
"l. c #514A42",
"z. c #5D4E40",
"x. c #584D46",
"c. c #534E49",
"v. c #5E564F",
"b. c #525252",
"n. c #565758",
"m. c #5E5F5F",
"M. c #5C5C5C",
"N. c #6D5F55",
"B. c #726050",
"V. c #666564",
"C. c #6C6864",
"Z. c #696866",
"A. c #706A65",
"S. c #826139",
/* pixels */
"                                . . . . . . . . . . . . . . . . .                                   ",
"                            . . . . . . . . . . . . . . . . . . . . . .                             ",
"                        . . . . . . . . . . . . . . . . . . . . . . . . .                           ",
"                      o . . . . . . . . . . . . . . . . . . . . . . . . . X +                       ",
"                  + X . . . . . . . . . . . . . . . . . . . . . . . . . . X o +                     ",
"                + X X X . . . . . . . . . . . . . . . . . . . . . . . . . o + + +                   ",
"              & X X X X . . . . . . . . . . . . . . . . . . . . . . . . . o + & + &                 ",
"            & o X o o # . . . . . . . . . . . . . . . . . . . . . . . . . # - & & 4 8               ",
"            & o o + # % . . . . . . . . . . . . . . . . . . . . . . . . . # : & & 5 i a             ",
"          & + + + + + + . . . . . . . . . . . . . . . . . . . . . . . . . o @ & & 5 p I U           ",
"        & $ % & + % $ # . . . . . . . . . . . . . . . . . . . . . . . . . O & & & 5 a I (           ",
"        & $ & 2 $ & % O . . . . . . . . . . . . . . . . . . . . . . . . . X # & 2 5 f E X.)         ",
"      2 & & 4 4 & & = X . . . . . . . . . . . . . . . . . . . . . . . . . . O % & 5 f ! X.7.        ",
"      & & 4 9 5 & = = O . . . . . . . . . . . . . . . . . . . . . . . . . . = = ; 5 f ! ) 0.[       ",
"    & & 4 5 q 9 > O . o X . . . . . . . . . . . . . . . . . . . . . . . . o X X = u p ! ..0.o.      ",
"    @ 2 t 5 9 j # . X + X . . . . . . . . . . . . . . . . . . . . . . . . + + . . h x F O.q.$.^     ",
"    @ 4 e s l > O X + + X . . . . . . . . . . . . . . . . . . . . . . . . + + & . > l ;.' t.@.D     ",
"  8 - 5 d N : o O + % - . . . . . . . . . . . . . . . . . . . . . . . . . # % 2 + O . Z k.,.e.j.    ",
"  u ; 3 N h . X & & % ; X . . . . . . . . . . . . . . . . . . . . . . . . % ; & 2 @ . . h.z...C.    ",
"  & $ b l O X 5 4 & + + X . . . . . . . . . . . . . . . . . . . . . . . . o + & & 5 9 . h n.x.J S.  ",
"  2 l > * 8 a i 2 2 % + X . . . . . . . . . . . . . . . . . . . . . . . . + + & & 5 a p g # m.B.1.  ",
"$ h > . & p T i 2 & % + X . . . . . . . . . . . . . . . . . . . . . . . . + + & & 5 a ! p . = Z.l.  ",
"  > X X Q R f i 2 & $ + X . . . . . . . . . . . . . . . . . . . . . . . . + + & & 7 f U =.f . V n.  ",
"  = O R ) Y U i 2 & & % . . . . . . . . . . . . . . . . . . . . . . . . . # % & & 5 a I X.t.E C y   ",
"  X 3 ( *.I U i 2 & % = X . . . . . . . . . . . . . . . . . . . . . . . . # = & & 5 a I / 7.$.w .   ",
"  5 7 ( =.E f i 2 & @ o X . . . . . . . . . . . . . . . . . . . . . . . . o + & & 5 a I ..9.o.6.2.  ",
"  i 6 X.=.E U t 2 & + # . . . . . . . . . . . . . . . . . . . . . . . . . O + & & 5 a I / r.] <.s.  ",
"  u s { =.E a i 2 & + O . . . . . . . . . . . . . . . . . . . . . . . . . X O & & 5 a I ) 7.-.a.i.  ",
"  x v ` *.! a t , + = X . . . . . . . . . . . . . . . . . . . . . . . . . . O % @ 5 p I ) 6.4.A.i.  ",
"  t 2 { X.! a 5 & = = O . . . . . . . . . . . . . . . . . . . . . . . . . . = * : 2 i U ) 7.` +.p.  ",
"  i 7 ( X.R r t > O . X . . . . . . . . . . . . . . . . . . . . . . . . . X X X : y e P X.6.[ u.i.  ",
"  i 5 R / P t l O . X o . . . . . . . . . . . . . . . . . . . . . . . . . X o . . h x w / 3.` w.i.  ",
"  e , T W Q V y % . + + . . . . . . . . . . . . . . . . . . . . . . . . . o + + . > l ;.H 3.Y <.p.  ",
"  t 0 w %.f.: X O o + o . . . . . . . . . . . . . . . . . . . . . . . . . X + $ o O . Z l.K &.5.i.  ",
"  u 0 s h.l . o + + # O . . . . . . . . . . . . . . . . . . . . . . . . . o O + & @ X . f.l.r v.y.  ",
"  4 2 f.V O . & @ + + o . . . . . . . . . . . . . . . . . . . . . . . . . X o + + 2 & . y M.c.S y.  ",
"  4 A j = 8 5 2 @ + + X . . . . . . . . . . . . . . . . . . . . . . . . . X o + + 2 4 5 g . m.N.L   ",
"  l h . @ e t 2 + + o X . . . . . . . . . . . . . . . . . . . . . . . . . X X + + & 4 i 1 . O V.f.  ",
"  y O + i p 5 2 + o o . . . . . . . . . . . . . . . . . . . . . . . . . . . X o o & 4 e P 9 . N b.  ",
"  : = p a e 5 & + o X . . . . . . . . . . . . . . . . . . . . . . . . . . . . X o @ 2 e i ( e m >   ",
"  . 2 a a 7 4 $ + . . . . . . . . . . . . . . . . . . . . . . . . . . . . . . . X + & 5 i R I < .   ",
"  4 3 p p 5 & + X . . . . . . . . . . . . . . . . . . . . . . . . . . . . . . . . + & 2 i I P E R   ",
"  5 3 i i 4 & X . . . . . . . . . . . . . . . . . . . . . . X X X X X X X X X X X X + 2 5 U p { 3.  ",
"  5 , i 4 2 + . . . . . . . . . . . . . . . . . X X O O O * = = = = = : : : : : : : % & 4 i r G >.  ",
"  8 0 4 4 + . . . . . . . . . . . . X X O O O * : : > > > > > > > > > > > > > > > h h ; & 5 s :.O.  ",
"  8 - 4 $ . . . . . . . . . X O O O = : : > > > h h j j j j j j j j j j l l l l l l v m h 1 9 c /   ",
"  & + @ . . . . . . . X O O = : : > > > h j j l l l m m m m m m m m m m m Z Z Z Z Z Z A A k @ e R   ",
"  & + . . . . . X X O O : > > > h j l l l m m m Z Z A A A A d.d.d.d.d.d.d.d.d.d.d.d.d.d.d.d.l < U   ",
"  + . . . . X O O = : > > h j l l m m Z A A d.d.d.d.d.d.f.f.h.h.h.h.h.h.h.h.h.h.b.b.b.b.b.b.b.n 6   ",
"  . . . X O O : > > h j j l m m Z Z A A d.d.d.d.d.f.f.f.f.f.f.f.f.f.f.f.f.f.h.h.h.h.h.h.f.h.f.f.h   "
};
