/* XPM */
static char *_aad5a88287a4caac65ca75e1a89877469NE6sEpq0AT4YIm[] = {
/* columns rows colors chars-per-pixel */
"50 50 224 2 ",
"   c None",
".  c #000000",
"X  c #0B0503",
"o  c #0E0805",
"O  c #0B0B0B",
"+  c #00080E",
"@  c #140D05",
"#  c #1C0900",
"$  c #130C08",
"%  c #1B1007",
"&  c #1C1309",
"*  c #15110B",
"=  c #070F11",
"-  c #051015",
";  c #0B1114",
":  c #0C161B",
">  c #0B161B",
",  c #131414",
"<  c #14191A",
"1  c #1A1B1C",
"2  c #181715",
"3  c #250300",
"4  c #2E0200",
"5  c #2B0C00",
"6  c #230C00",
"7  c #3A0100",
"8  c #3B0A00",
"9  c #330A00",
"0  c #231503",
"q  c #2A1602",
"w  c #2C1A04",
"e  c #22160A",
"r  c #25190D",
"t  c #2C1C0C",
"y  c #271A06",
"u  c #341300",
"i  c #341B00",
"p  c #3C1B00",
"a  c #321E0C",
"s  c #3D1000",
"d  c #291D11",
"f  c #241D15",
"g  c #3B2202",
"h  c #35210E",
"j  c #3B240D",
"k  c #342203",
"l  c #2E2113",
"z  c #2D221A",
"x  c #342311",
"c  c #3B2612",
"v  c #3C2914",
"b  c #3B2C1A",
"n  c #352617",
"m  c #2E200F",
"M  c #141D21",
"N  c #191F22",
"B  c #1E2224",
"V  c #202324",
"C  c #2B2623",
"Z  c #2C2C2B",
"A  c #2A2928",
"S  c #3C2D22",
"D  c #322B26",
"F  c #3D3128",
"G  c #343535",
"H  c #393633",
"J  c #3C3C3B",
"K  c #3F3935",
"L  c #460000",
"P  c #4B0200",
"I  c #4C0A00",
"U  c #450900",
"Y  c #4B1D00",
"T  c #421A00",
"R  c #551D00",
"E  c #561600",
"W  c #530F00",
"Q  c #442301",
"!  c #4D2300",
"~  c #452902",
"^  c #4A2A02",
"/  c #492B0E",
"(  c #5A2600",
")  c #542C00",
"_  c #5A2C00",
"`  c #542100",
"'  c #563201",
"]  c #5A3301",
"[  c #51310A",
"{  c #5A3808",
"}  c #432B13",
"|  c #4A2E14",
" . c #422F19",
".. c #412710",
"X. c #4D3115",
"o. c #463119",
"O. c #4C341A",
"+. c #4E381D",
"@. c #493316",
"#. c #533416",
"$. c #593616",
"%. c #5C3A15",
"&. c #53361A",
"*. c #55391C",
"=. c #5C3B1B",
"-. c #593719",
";. c #633600",
":. c #653A01",
">. c #6A3D01",
",. c #623E1C",
"<. c #663E12",
"1. c #453428",
"2. c #553B22",
"3. c #5C3E21",
"4. c #523C28",
"5. c #473E37",
"6. c #633F20",
"7. c #5F411F",
"8. c #6C4206",
"9. c #774706",
"0. c #65411D",
"q. c #6C441E",
"w. c #6C4414",
"e. c #734B14",
"r. c #7B4C13",
"t. c #70461E",
"y. c #73481F",
"u. c #77491A",
"i. c #7D521C",
"p. c #5E4122",
"a. c #5C422B",
"s. c #4C453E",
"d. c #534439",
"f. c #59483A",
"g. c #634322",
"h. c #6C4521",
"j. c #654925",
"k. c #6D4A24",
"l. c #62452B",
"z. c #6C4C29",
"x. c #714721",
"c. c #744B22",
"v. c #794E23",
"b. c #714E28",
"n. c #765027",
"m. c #7C5125",
"M. c #74522A",
"N. c #795329",
"B. c #7B542A",
"V. c #7C592E",
"C. c #664C36",
"Z. c #6C5338",
"A. c #7D5B31",
"S. c #735337",
"D. c #3F4142",
"F. c #444544",
"G. c #494846",
"H. c #4E4E4D",
"J. c #484744",
"K. c #584B41",
"L. c #59514A",
"P. c #535453",
"I. c #5C5C5B",
"U. c #5A5755",
"Y. c #645143",
"T. c #6B5749",
"R. c #735B4B",
"E. c #7A5E4B",
"W. c #775842",
"Q. c #6B5D53",
"!. c #625E5B",
"~. c #645951",
"^. c #7C634D",
"/. c #63615F",
"(. c #6A635D",
"). c #726258",
"_. c #5D5F60",
"`. c #5F6060",
"'. c #636363",
"]. c #6D6762",
"[. c #6C6B6A",
"{. c #746B64",
"}. c #776E68",
"|. c #76716D",
" X c #757474",
".X c #7D7C7B",
"XX c #787776",
"oX c #825011",
"OX c #825526",
"+X c #82562A",
"@X c #845B2D",
"#X c #8A5D2D",
"$X c #885D23",
"%X c #855E31",
"&X c #885E32",
"*X c #905D2B",
"=X c #8A682C",
"-X c #87612E",
";X c #866033",
":X c #8D6332",
">X c #896938",
",X c #906E37",
"<X c #94713E",
"1X c #81654D",
"2X c #967340",
"3X c #997641",
"4X c #856951",
"5X c #897E77",
"6X c #897F78",
"7X c #827D79",
"8X c #81756D",
"9X c #8D8178",
"0X c #81807F",
"qX c #918379",
"wX c #7F8284",
"eX c #858584",
"rX c #8D8C8B",
"tX c #949493",
"yX c #9E9E9D",
"uX c #A1A09F",
"iX c #A6A6A6",
"pX c #A9A8A8",
"aX c #B0AFAF",
"sX c #B4B3B3",
/* pixels */
"                                  & & & & & X # & b 6 # r t r r t t                                 ",
"                            & & % e r t d 6 G.F.# +.P.H.u } c c h a h t                             ",
"                          & & e e t x c c g K K y M.K.s.[ &.O.+.X. . .h v b                         ",
"                      e e e r t a ..o.O.| @.~ [ n >X<.<.0.0.j.j.0.,.=.X.O. .c                       ",
"                    & e r t h c ..&.3.=.=.=.=.,.v <Xv.x.0.x.b.b.x.x.x.,.g.+.@.c c                   ",
"                  & e t l v } | #.0.k.h.,.,.%.0.b <XOXv.q.t.k.N.c.b.m.t.b.g.=.| v ..                ",
"                % r t h } @.=.=.=.x.M.k.,.%.4.4.n <Xz.l.t.q.k.V.c.b.@Xy.N.k.q.=.X.X.O.              ",
"              e e t v | *.g.0.0.0.c.N.k.g.Y rXeX3 =XrXeX_ c.k.V.c.b.@Xv.B.M.x.0.=.=.g.2.            ",
"            & r e c @.=.j.b.q.0.0.x.N.z.=.$.s.d.j <XC.f.w.0.k.A.c.x.+Xv.N.N.c.0.0.,.z.j.            ",
"          & e r h | =.q.n.B.q.q.q.x.N.b.=.=.[ X.b 2Xr.e.h.,.z.&Xv.c.B.v.@XN.c.0.q.q.k.b.-.          ",
"          % e x ..&.g.c.N.@Xq.0.x.x.N.n.-.=.3.2.v <Xm.c.q.=.z.;Xv.x.N.v.#XN.x.0.x.q.x.k.=.#.        ",
"        & & r } X.,.k.v.#X#Xq.q.q.h.N.M.&.=.] { b 2Xr.8.x.=.b.:Xv.c.N.c.:X@Xc.q.q.q.c.z.*.&.        ",
"        & e x &.=.0.x.v.#X#Xt.x.0.q.N.V.&.{ L.L.k <XT.T.w.0.b.:Xv.x.v.c.:X@Xc.t.q.0.c.M.=.=.=.      ",
"      & e t v p.0.q.c.m.#X%Xc.x.,.0.+X@X2.Y rX.X3 =XeXeX_ h.M.:X+Xy.v.c.:XV.v.t.0.,.b.N.3.*.,.      ",
"      & e x o.z.c.y.c.m.#XA.v.h.,.0.@X@X&.,.@.@.b <X=.&.x.0.N.:X+Xy.v.c.:XB.m.q.0.=.N.N.=.=.0.=.    ",
"    % & t ..+.N.v.c.x.m.#XA.c.x.0.,.%XN.+.0.,.,. .2Xv.q.q.t.M.:XOXy.c.c.:XV.v.q.q.=.B.N.=.=.0.=.    ",
"    & e t  .*.B.m.c.c.OX#XA.q.x.0.0.V.z.*.0.3.g. .<Xv.g.q.x.b.:X+Xx.c.v.:XV.c.q.q.=.B.n.=.=.,.3.    ",
"    @ 0 h X.p.#XOXc.v.OX&X#Xq.q.0.0.N.b.-.h._ '  .2X9.] x.t.b.#X#Xv.v.m.:X@Xc.0.q.=.B.M.=.g.;.) k.  ",
"    f Z j &.j.#X#Xv.v.+X;X#Xq.h.0.0.b.b.3.;.{.(.i ,X{.].>.c.M.n.*Xv.u.m.:X@Xc.q.q.,.B.M.p.;.Q.|.e.  ",
"  0 C G c =.j.#X@Xb.N.#X&X@Xx.h.0.h.b.z.3._ .X X3 =X.XXX;.b.b.M.#XN.m.+X:X@Xv.h.h.0.B.n.p.] {.eXe.  ",
"  d e q X.,.k.OXi.i.r.oXe.e.>.>.>.>.e.w.' <.Y Q c 3X>.) u.9.e.e.r.i.r.r.i.e.8.>.>.>.m.n.=.,.' 8 ;X  ",
"  r r n +.l.C.S.W.1XE.1X1X1XR.R.R.E.^.^.Y.C.C.a.b >XM.C.S.W.^.^.^.4X^.E.1X1XE.R.R.W.S.Z.a.a.l.4.A.z.",
"  $ 2 , G H.I.|.tXyXsXsXsXsXsXsXaXsXsXsXuX7XI./.G.F./.I..XuXsXsXsXsXsXsXsXsXsXsXpXyXeX'.I.P.H H H   ",
"  O . U.5.. , o . 7XP.. . . . H eX. . . . K rXA . D . XX X. . . . [. X. . . . . eXK . * $ X rXP..   ",
"  . . F.G . - > . [.P.. N M + D.XXM < N + G  XN . > . '.`.. N N . `.'.. N M : B XXJ . : - =  XF..   ",
"  % r 5 g @.O.&.X.T ^ &.O.&.@.~ 8 X.O.@.o.g 4 } r p.*.T p +.O.&.&.Q Q &.&.O.O.} 8 ^ &.@.@...4 g 2.  ",
"  d c X.=.x.n.+Xc.N.b.+XN.N.0.h.b.c.M.b.0.=.g.g.v 3XB.B.x.t.M.B.v.v.v.m.B.M.k.0.c.c.n.b.q.=.p.3.;X  ",
"  l j Q =.h.z.+Xc.v.x.m.N.B.,.0.0.c.M.k.,.*.) ' b 2X9.>.h.q.z.@Xv.v.c.v.+XM.q.0.q.y.n.k.0.*.' Y ;X  ",
"  y F G.#.q.b.#Xy.B.v.m.#X@X,.q.0.c.V.b.=.Q {.(.i ,X}.].>.x.M.#Xv.m.m.u.#X@X0.0.q.q.V.z.g.^ Q.[.$X  ",
"  q H P.&.q.z.#Xv.V.v.OX@XB.=.0.q.x.N.M.2.i .X X5 =X.XXX;.c.B.#Xm.B.m.v.@XV.0.=.q.q.N.z.3.p {.wX$X  ",
"  l k g =.q.z.#Xy.+Xx.B.@XB.=.0.q.c.N.b.@.2.! ^ b 2X8.;.c.t.M.#Xv.B.v.m.@XV.0.,.q.t.N.z.*.+.] s ;X  ",
"  d c X.=.0.z.@Xx.m.y.B.V.b.,.0.0.c.M.b.@.=.h.g.v <X&XB.q.q.M.#Xc.m.c.v.m.M.q.0.0.q.n.k.*.O.h.=.;X  ",
"  r x | &.,.k.+Xq.x.v.B.B.k.0.0.0.q.k.h.O.=.g.=.v ,XB.b.0.0.k.N.x.x.c.N.n.n.h.0.0.0.b.k.*.&.h.&.:X  ",
"  d a g #.=.k.B.0.x.b.v.B.c.,.,.0.0.j.j.O.=.) ) b >X8.>.0.,.j.b.q.t.b.v.n.N.q.,.0.,.k.j.-.*.{ Q &X  ",
"  y D F.} =.g.b.,.y.c.y.n.k.,.=.,.0.j.7.*.! ].!.q -X].(.' =.0.k.0.q.b.q.b.b.0.-.,.,.h.g.*.^ ~.[.i.  ",
"  y C J } &.p.k.6.h.z.h.z.z.3.3.g.g.g.p.2.^ I.U.w V.!.U.' 2.g.z.h.g.z.h.b.z.g.3.g.6.g.3.*.^ L.I.k.  ",
"  r y i ^ ^ %.>.( R R E ( R P L L L I U 7 Q 7 T k A._ ! _ 7 U ` E I R W ( ` I L I Y ) ' ^ ^ Q 7 z.  ",
"  & d S 4.d.f.T.{.8X6X5X9X9X5X6X5X6X9X5X}.Q.K.f.1.Z.Y.Y.Q.}.5XqX6X5X9X6X9X9X5X6X8X}.).Y.K.f.d.d.C.  ",
"  O , A J F.G.'.eXtXiXiXiXiXiXiXiXiXiXiXtXXXI.I.F.F.I.I.XXtXiXiXiXiXiXiXiXiXiXiXyXrXXXI.I.P.G.G.F.  ",
"  O . [.H.. * . . .XU.. . . . f 0X. . . . G rX1 . C . 0XXX. . . . !.XX. . . . . eXA . . . . rXH..   ",
"  . . J A . ; ; - H.F.< B V 1 G P.V B V 1 A H.< O : . G.F.= V V : F.H.< B V B V P.Z ; , , ; H.Z .   ",
"  & e 6 i  .} X.@.p g |  ...} Q u ..} ..c j 5 j & *. .u i  .} @.X.Q p  .@...} ..u g  .} c c u i @.  ",
"  m t x | =.3.k.=.=.=.,.p.=.$.&.&.#.=.*.| X.@.| e M.=.X.-.$.=.j.0.&.=.=.g.=.=.#.&.X.=.=.#.| @.} 0.  ",
"  t t a } &.*.0.&.X.#.=.*.-.#.#.| | &.*.| ..j / e z.$.| X.#.*.7.=.| #.$.=.&.#.X.X.| &.*.X...j Q p.  ",
"  r d z j X.O.&.#.| | #.*.&.| | } } O.O.} j S S % j.1.1./ X.&.-.#.| | X.=.+.X.| } ..@.O.| j b F -.  ",
"  0 C J q  .} O.| ....| o. .} } c c } o.c 4 I.U.. [ I.I.u | @.@.X.....| X.} } ....j  .} c u J._.Q   ",
"  e e 2 a c c  ...j c } v c j j j j c v h a z z % +.n z j c v } } j j ..} c c j j h c c h a l z ..  ",
"  & e 0 t h x c j h h j c x a h a a x x a t y w & o.j a a h x c j h j j c x h a a a x x a t t y v   ",
"  % % % e t t h a a a a h a t t t t t t t e e t @ x h t t a a h a a a a h t t t t t t t t t e e x e ",
"                                        o X X X X X X X X o @                                   $   "
};
